<?xml version="1.0" encoding="UTF-8"?>
<svg width="235px" height="58px" viewBox="0 0 235 58" version="1.1" xmlns="http://www.w3.org/2000/svg" xmlns:xlink="http://www.w3.org/1999/xlink">
    <!-- Generator: Sketch 55 (78076) - https://sketchapp.com -->
    <title>logo</title>
    <desc>Created with Sketch.</desc>
    <defs>
        <polygon id="path-1" points="0.0113315386 0.0419181818 34.0544735 0.0419181818 34.0544735 13.0128273 0.0113315386 13.0128273"></polygon>
        <path d="M0,0.188876623 L0,0.193584416 C0.0425403277,2.39475974 0.37194552,4.582 0.978804001,6.69937662 L0.978804001,6.69937662 C0.990097893,6.73835714 1.02077963,6.76811039 1.05974356,6.77978571 L1.05974356,6.77978571 C1.08063726,6.78637662 1.1017192,6.79277922 1.12317759,6.80012338 L1.12317759,6.80012338 C3.63851564,7.65637662 6.87383933,12.9390844 6.56664546,15.7300519 L6.56664546,15.7300519 C6.53426963,16.0200519 6.46594158,16.2554416 6.36768472,16.4413052 L6.36768472,16.4413052 C6.34509694,16.4838636 6.3520615,16.5367792 6.38443733,16.5725584 L6.38443733,16.5725584 C8.08322696,18.5040714 10.0630463,20.1668636 12.2570731,21.5050065 L12.2570731,21.5050065 C12.3609769,21.5684675 12.4776805,21.4451234 12.4095406,21.3438117 L12.4095406,21.3438117 C10.0558935,17.8457338 9.1034419,13.5817922 9.75528772,9.40277922 L9.75528772,9.40277922 C9.75528772,9.40164935 9.75585242,9.40014286 9.75641711,9.39901299 L9.75641711,9.39901299 C9.75585242,9.39901299 9.75585242,9.39844805 9.75528772,9.39844805 L9.75528772,9.39844805 C9.8936379,8.38683766 9.24480379,7.4352987 8.25357651,7.19501299 L8.25357651,7.19501299 C8.25282358,7.19444805 8.25282358,7.19369481 8.25225888,7.19312987 L8.25225888,7.19312987 C4.82644488,5.85253896 1.98640743,3.35119481 0.221548521,0.133512987 L0.221548521,0.133512987 C0.198396042,0.0913311688 0.159243882,0.0725 0.120091722,0.0725 L0.120091722,0.0725 C0.0604223239,0.0725 0.00112938923,0.116376623 0,0.188876623" id="path-3"></path>
        <radialGradient cx="97.5493456%" cy="-26.2335516%" fx="97.5493456%" fy="-26.2335516%" r="188.428712%" gradientTransform="translate(0.975493,-0.262336),scale(1.000000,0.579483),rotate(99.104685),translate(-0.975493,0.262336)" id="radialGradient-5">
            <stop stop-color="#F2360B" offset="0%"></stop>
            <stop stop-color="#F20E07" offset="100%"></stop>
        </radialGradient>
        <path d="M35.0116309,0.13388961 C30.3973229,6.43950649 22.5164449,10.0147922 14.2655036,8.7370974 L14.2655036,8.7370974 C12.2625318,8.42788961 10.313206,7.83866234 8.47531326,6.98561039 L8.47531326,6.98561039 C8.45517248,6.97544156 8.43503171,6.96508442 8.41489093,6.95491558 L8.41489093,6.95491558 C8.05668632,6.75794156 7.67815269,6.60126623 7.28568993,6.48752597 L7.28568993,6.48752597 C7.14602213,6.44666234 7.00522494,6.41182468 6.86329836,6.38263636 L6.86329836,6.38263636 C6.2995449,6.26512987 5.71866237,6.23556494 5.1458738,6.29676623 L5.1458738,6.29676623 C4.59002607,6.35683766 4.04302522,6.50127273 3.52971781,6.72404545 L3.52971781,6.72404545 C3.01866918,6.94531169 2.5418787,7.24303247 2.11911066,7.60496753 L2.11911066,7.60496753 C1.69050745,7.97123377 1.31856193,8.40322078 1.02040317,8.88153247 L1.02040317,8.88153247 C0.710574058,9.37905195 0.480555118,9.92496753 0.339946159,10.4936688 L0.339946159,10.4936688 C0.201407746,11.0533312 0.150020536,11.6333312 0.188796233,12.2082468 L0.188796233,12.2082468 C0.227195467,12.7679091 0.351804746,13.3211688 0.55547127,13.8442987 L0.55547127,13.8442987 C0.757443711,14.3625325 1.03715578,14.8504481 1.38274888,15.2867662 L1.38274888,15.2867662 C1.73135369,15.7272273 2.14791009,16.1143961 2.61265376,16.4301948 L2.61265376,16.4301948 C3.09471473,16.7574805 3.62797468,17.0066169 4.18739881,17.1689416 L4.18739881,17.1689416 L4.18325771,17.1864545 C5.09542775,17.4327662 6.02171515,17.6287987 6.95553182,17.7732338 L6.95553182,17.7732338 C19.5860563,19.7303571 31.4853012,12.0704026 35.2188738,0.239909091 L35.2188738,0.239909091 C35.2467321,0.152720779 35.1768982,0.0849285714 35.1046173,0.0849285714 L35.1046173,0.0849285714 C35.0709238,0.0849285714 35.0368539,0.0996168831 35.0116309,0.13388961 M6.72551288,14.2079286 C5.59028847,14.0382597 4.58099096,13.1418961 4.66776569,12.0385779 L4.66776569,12.0385779 C4.76075207,10.8646429 6.05710268,10.117987 7.45698063,10.4684351 L7.45698063,10.4684351 C8.110897,10.6318896 11.0217095,11.7186364 14.6566488,11.9954545 L14.6566488,11.9954545 C17.6133898,12.2206753 21.082497,11.8385909 22.5627498,11.6450065 L22.5627498,11.6450065 C22.6956413,11.6274935 22.7502285,11.8109091 22.6286309,11.8683442 L22.6286309,11.8683442 C21.1933654,12.553987 17.6655299,14.116974 14.4475235,14.5849286 L14.4475235,14.5849286 C13.7025031,14.6933961 12.9170129,14.7357662 12.1433813,14.7357662 L12.1433813,14.7357662 C9.57496191,14.7357662 7.13472824,14.2693182 6.72551288,14.2079286" id="path-6"></path>
        <radialGradient cx="-5.96558894%" cy="-3.95323153%" fx="-5.96558894%" fy="-3.95323153%" r="100.518581%" gradientTransform="translate(-0.059656,-0.039532),scale(0.513369,1.000000),rotate(48.984089),translate(0.059656,0.039532)" id="radialGradient-8">
            <stop stop-color="#006EFF" offset="0%"></stop>
            <stop stop-color="#0054FF" offset="100%"></stop>
        </radialGradient>
        <polygon id="path-9" points="0.0732446321 0.0578116883 13.5293039 0.0578116883 13.5293039 13.0454414 0.0732446321 13.0454414"></polygon>
        <path d="M9.57891477,1.03853896 C9.57778538,1.0407987 9.57590306,1.04324675 9.57420898,1.04569481 L9.57420898,1.04569481 C7.33030081,4.25772727 4.03662535,6.57603247 0.273500426,7.60967532 L0.273500426,7.60967532 C0.144185359,7.64564286 0.16394967,7.83508442 0.297594063,7.84224026 L0.297594063,7.84224026 C4.85430315,8.08309091 9.16254661,6.47585065 12.4076583,3.61784416 L12.4076583,3.61784416 C12.4093524,3.61614935 12.4117994,3.61426623 12.4142464,3.61238312 L12.4142464,3.61238312 C12.6405007,3.45005844 12.8298617,3.24084416 12.9693412,2.99886364 L12.9693412,2.99886364 C13.5091893,2.06144805 13.1875016,0.864162338 12.2512379,0.323707792 L12.2512379,0.323707792 C11.9431029,0.145941558 11.6067331,0.0615779221 11.2748809,0.0615779221 L11.2748809,0.0615779221 C10.5991297,0.0615779221 9.94182518,0.412025974 9.57891477,1.03853896" id="path-11"></path>
        <path d="M56.2449014,0.11712987 C55.4537642,0.578116883 47.6909073,5.03488961 42.440565,5.6292013 L42.440565,5.6292013 C41.278047,5.76083117 40.113082,5.86911039 38.946423,5.95818182 L38.946423,5.95818182 C37.8215513,6.04386364 36.695362,6.11165584 35.5684198,6.16438312 L35.5684198,6.16438312 C34.5032175,6.2140974 33.4372623,6.25062987 32.3711189,6.27605195 L32.3711189,6.27605195 C31.3768799,6.29996753 30.3824526,6.31446753 29.3878372,6.32237662 L29.3878372,6.32237662 C28.4867728,6.32972078 27.585332,6.33141558 26.6840794,6.33122727 L26.6840794,6.33122727 C25.8967069,6.33122727 25.1091461,6.32934416 24.3217736,6.33085065 L24.3217736,6.33085065 C23.6631514,6.33235714 23.004341,6.33555844 22.3457189,6.34968182 L22.3457189,6.34968182 C21.7847889,6.36173377 21.2249883,6.38357792 20.6655642,6.42632468 L20.6655642,6.42632468 C19.7055833,6.49976623 18.7480495,6.60936364 17.7969155,6.76057792 L17.7969155,6.76057792 C16.9041333,6.90237662 16.0169981,7.08051948 15.1398391,7.29971429 L15.1398391,7.29971429 C14.3118086,7.50629221 13.4924367,7.74959091 12.6873704,8.033 L12.6873704,8.033 C11.9271032,8.3004026 11.1794475,8.60358442 10.4496739,8.94537013 L10.4496739,8.94537013 C9.75999351,9.26832468 9.0861246,9.62592857 8.43409055,10.0195 L8.43409055,10.0195 C7.81029123,10.3959351 7.20663269,10.805513 6.62800894,11.2486104 L6.62800894,11.2486104 C6.07347883,11.6740065 5.54210119,12.1299091 5.03989945,12.6163182 L5.03989945,12.6163182 C4.55614439,13.0846494 4.09949468,13.5808506 3.67446787,14.1032273 L3.67446787,14.1032273 C3.25904086,14.6139286 2.87410736,15.1491104 2.52362024,15.7061364 L2.52362024,15.7061364 C2.17915652,16.2533701 1.86819802,16.8213182 1.59319174,17.4064026 L1.59319174,17.4064026 C1.3219501,17.9841429 1.08553128,18.5782662 0.886382315,19.1844416 L0.886382315,19.1844416 C0.687233348,19.7898636 0.525165993,20.4073377 0.400368483,21.0323442 L0.400368483,21.0323442 C0.339381464,21.3374091 0.287053096,21.6443571 0.243948074,21.9524351 L0.243948074,21.9524351 C-0.654292828,28.3540909 3.66787976,33.4292792 10.1477505,34.9485779 L10.1477505,34.9485779 C16.1128079,36.3462273 22.3086373,35.9722403 31.5724524,26.1431234 L31.5724524,26.1431234 C33.2324664,24.3820325 37.5730857,17.2830584 43.3956518,12.113526 L43.3956518,12.113526 C49.1559134,7.00048701 53.7116813,2.93163636 56.5227311,0.415792208 L56.5227311,0.415792208 C56.572236,0.371727273 56.597459,0.306194805 56.5888004,0.240097403 L56.5888004,0.240097403 C56.582777,0.194902597 56.5679067,0.151214286 56.5374132,0.121272727 L56.5374132,0.121272727 C56.5091784,0.0937792208 56.4707792,0.080974026 56.4303094,0.075512987 L56.4303094,0.075512987 C56.4199567,0.0743831169 56.409604,0.0738181818 56.3994395,0.0738181818 L56.3994395,0.0738181818 C56.345417,0.0738181818 56.2921475,0.0896363636 56.2449014,0.11712987 M13.2413358,26.5894221 C12.6371126,26.4958312 12.0456891,26.3101558 11.5062175,26.0203442 L11.5062175,26.0203442 C11.0121097,25.755013 10.5641186,25.4023052 10.2023376,24.9727662 L10.2023376,24.9727662 C9.84959172,24.5543377 9.58249117,24.0662338 9.42249436,23.5427273 L9.42249436,23.5427273 C9.25289774,22.9889026 9.20414578,22.4028766 9.26005054,21.8272078 L9.26005054,21.8272078 C9.31068483,21.3052078 9.43661173,20.7867857 9.61449053,20.293974 L9.61449053,20.293974 C9.78841647,19.8128377 10.0184354,19.3529805 10.2947593,18.9226883 L10.2947593,18.9226883 C10.5852006,18.4703636 10.9257114,18.0513701 11.3002922,17.6662727 L11.3002922,17.6662727 C11.7080017,17.2474675 12.1558045,16.8685844 12.627701,16.524539 L12.627701,16.524539 C13.1483494,16.1447143 13.698362,15.8065065 14.2653154,15.5008766 L14.2653154,15.5008766 C14.9030438,15.1570195 15.5624189,14.8542143 16.2336526,14.5822922 L16.2336526,14.5822922 C16.4066374,14.5120519 16.5807515,14.4438831 16.7552422,14.3777857 L16.7552422,14.3777857 C18.7218853,13.6322597 23.70268,12.7458766 27.5181333,12.2018442 L27.5181333,12.2018442 C31.7896716,11.5920909 35.8677079,11.0497532 37.1642468,10.8783896 L37.1642468,10.8783896 C37.2854679,10.8623831 37.3509724,11.0154805 37.2561037,11.0919351 L37.2561037,11.0919351 C35.2410851,12.7208312 25.0101363,21.6458636 22.7626517,23.3890649 L22.7626517,23.3890649 C20.2299964,25.3533442 16.8531226,26.6626753 14.2506333,26.6628636 L14.2506333,26.6628636 C13.8986403,26.6628636 13.560953,26.6389481 13.2413358,26.5894221" id="path-13"></path>
        <radialGradient cx="-10.3514583%" cy="57.7180365%" fx="-10.3514583%" fy="57.7180365%" r="84.9432077%" gradientTransform="translate(-0.103515,0.577180),scale(0.628200,1.000000),rotate(17.327902),translate(0.103515,-0.577180)" id="radialGradient-15">
            <stop stop-color="#006EFF" offset="0%"></stop>
            <stop stop-color="#0054FF" offset="100%"></stop>
        </radialGradient>
        <path d="M0.705680038,17.1246883 C0.705680038,17.1246883 0.267288785,18.3208442 0.169408385,18.9501818 L0.169408385,18.9501818 C-0.37552192,22.4529675 2.02066557,25.7346753 5.52271334,26.280026 L5.52271334,26.280026 C8.53498266,26.7468506 11.3804788,25.0322727 12.4592338,22.3121104 L12.4592338,22.3121104 L12.4718453,22.3175714 C16.4429661,10.8891234 26.0717622,5.46555844 40.4741101,5.46555844 L40.4741101,5.46555844 C48.7969558,5.46555844 51.8030135,4.75957792 56.309653,1.75016883 L56.309653,1.75016883 C56.4109216,1.68294156 56.3563344,1.52532468 56.2351133,1.53436364 L56.2351133,1.53436364 C47.0544965,2.18874675 38.3536818,1.88594156 29.2579574,0.472850649 L29.2579574,0.472850649 C29.2506164,0.472474026 28.2305897,0.319753247 28.2268251,0.319 L28.2268251,0.319 C27.0844479,0.167409091 25.9465882,0.0934025974 24.8203989,0.0934025974 L24.8203989,0.0934025974 C14.073131,0.093025974 4.33271356,6.82855844 0.705680038,17.1246883 M6.72419525,19.7506948 C5.43142105,19.5507078 4.54616812,18.3400519 4.74625825,17.0467273 L4.74625825,17.0467273 C4.82813897,16.5147468 5.6806396,12.1287792 11.1820828,7.98761688 L11.1820828,7.98761688 C15.386046,4.82341558 18.5968996,4.93188312 19.6468551,4.84469481 L19.6468551,4.84469481 C19.7389003,4.83697403 19.7823818,4.95523377 19.7076539,5.00965584 L19.7076539,5.00965584 C18.6640982,5.76685714 15.1264747,8.62542857 13.0015288,11.3090584 L13.0015288,11.3090584 C10.506708,14.4598896 9.61976101,17.2109351 9.42701192,17.7719156 L9.42701192,17.7719156 C9.03153745,18.9232532 8.19353064,19.7783766 7.07694116,19.7783766 L7.07694116,19.7783766 C6.96211992,19.7783766 6.84466344,19.7693377 6.72419525,19.7506948" id="path-16"></path>
        <radialGradient cx="24.6409987%" cy="113.655613%" fx="24.6409987%" fy="113.655613%" r="121.384588%" gradientTransform="translate(0.246410,1.136556),scale(0.466729,1.000000),rotate(-105.926268),translate(-0.246410,-1.136556)" id="radialGradient-18">
            <stop stop-color="#F20A08" offset="0%"></stop>
            <stop stop-color="#F2380B" offset="100%"></stop>
        </radialGradient>
        <path d="M23.6309638,0.0873766234 C19.785017,3.3833961 14.1898345,8.21942857 12.5981486,9.454 L12.5981486,9.454 C9.7229119,11.683987 5.75988508,13.069961 3.07683273,12.6543571 L3.07683273,12.6543571 C2.47260949,12.5607662 1.881186,12.3750909 1.34171441,12.0852792 L1.34171441,12.0852792 C0.901817302,11.8491364 0.502389977,11.5399286 0.163761439,11.1727208 L0.163761439,11.1727208 L0.159243882,11.1753571 C0.159243882,11.1753571 5.91291732,19.3848052 24.0783902,7.01046753 L24.0783902,7.01046753 C31.8896226,1.68953247 27.8620323,0.0873766234 23.6780217,0.0871883117 L23.6780217,0.0871883117 C23.6622103,0.0871883117 23.6467753,0.0873766234 23.6309638,0.0873766234" id="path-19"></path>
        <linearGradient x1="20.9153517%" y1="63.2430248%" x2="86.5606357%" y2="34.4767988%" id="linearGradient-21">
            <stop stop-color="#073BCA" offset="0%"></stop>
            <stop stop-color="#0054FF" offset="100%"></stop>
        </linearGradient>
        <path d="M25.2235909,0.13388961 C20.6092829,6.43950649 12.7284049,10.0147922 4.47746361,8.7370974 L4.47746361,8.7370974 C3.00210481,8.50942857 1.55667482,8.12847403 0.162820281,7.60327273 L0.162820281,7.60327273 C4.04735454,10.1603571 10.4406388,11.8508312 17.7012939,11.9201299 L17.7012939,11.9201299 C21.2370351,8.89019481 23.9643219,4.88706494 25.4308338,0.239909091 L25.4308338,0.239909091 C25.4586921,0.152720779 25.3888582,0.0849285714 25.3165773,0.0849285714 L25.3165773,0.0849285714 C25.2828838,0.0849285714 25.2488139,0.0996168831 25.2235909,0.13388961" id="path-22"></path>
        <linearGradient x1="10.2158539%" y1="44.9784005%" x2="108.991713%" y2="52.2875261%" id="linearGradient-24">
            <stop stop-color="#0054FF" offset="0%"></stop>
            <stop stop-color="#0746CA" offset="100%"></stop>
        </linearGradient>
        <path d="M0.100892105,13.1181688 C5.18032017,7.06413636 13.1669844,4.14737662 23.7215032,4.14737662 L23.7215032,4.14737662 C32.0443489,4.14737662 35.0504066,3.4413961 39.5570461,0.431987013 L39.5570461,0.431987013 C39.6583146,0.36475974 39.6035393,0.207142857 39.4825064,0.216181818 L39.4825064,0.216181818 C33.128939,0.669071429 27.0050142,0.662480519 20.8210434,0.147824675 L20.8210434,0.147824675 C11.3435854,2.8323961 3.8907459,7.46486364 0.100892105,13.1181688" id="path-25"></path>
        <path d="M6.19074707,1.03853896 C6.18961768,1.0407987 6.18773537,1.04324675 6.18604129,1.04569481 L6.18604129,1.04569481 C4.61242562,3.29809091 2.52154969,5.10851948 0.115950628,6.34723377 L0.115950628,6.34723377 C3.39946159,6.34007792 6.41210736,5.39625974 8.77704841,3.82611688 L8.77704841,3.82611688 C8.85836444,3.75738312 8.93949223,3.68808442 9.01949064,3.61784416 L9.01949064,3.61784416 C9.02118472,3.61614935 9.02363173,3.61426623 9.02607874,3.61238312 L9.02607874,3.61238312 C9.25233305,3.45005844 9.44169398,3.24084416 9.58117355,2.99886364 L9.58117355,2.99886364 C10.1210216,2.06144805 9.7993339,0.864162338 8.86307023,0.323707792 L8.86307023,0.323707792 C8.5549352,0.145941558 8.21856544,0.0615779221 7.88671324,0.0615779221 L7.88671324,0.0615779221 C7.21077378,0.0615779221 6.55365748,0.411837662 6.19074707,1.03853896" id="path-27"></path>
        <radialGradient cx="50.0003165%" cy="49.9992073%" fx="50.0003165%" fy="49.9992073%" r="65.1333673%" gradientTransform="translate(0.500003,0.499992),scale(0.646201,1.000000),translate(-0.500003,-0.499992)" id="radialGradient-29">
            <stop stop-color="#F20A08" offset="0%"></stop>
            <stop stop-color="#F2380B" offset="100%"></stop>
        </radialGradient>
        <polygon id="path-30" points="0.169126037 0.0578116883 11.4565921 0.0578116883 11.4565921 11.1109169 0.169126037 11.1109169"></polygon>
    </defs>
    <g id="web端" stroke="none" stroke-width="1" fill="none" fill-rule="evenodd">
        <g id="01首页" transform="translate(-80.000000, -54.000000)">
            <g id="头部信息" transform="translate(80.000000, 54.000000)">
                <g id="logo">
                    <g id="编组" transform="translate(89.157135, 10.424872)">
                        <path d="M31.7214942,9.33968225 C31.1180239,9.35776017 30.6099869,9.79671472 30.5040126,10.3912147 L29.5423376,16.568968 L34.4905683,15.2547407 L35.4106441,9.34024719 L31.7214942,9.34024719 L31.7214942,9.33968225 Z" id="Fill-1" fill="#141C2D"></path>
                        <path d="M34.2038917,17.9724299 L29.2573551,19.2866571 L27.6005411,29.9319169 L27.4156977,31.1154558 L27.3957452,31.2461442 L27.3955569,31.2455792 C27.1922669,32.5526506 28.0888137,33.6109623 29.3989052,33.6115273 L33.7485596,33.6115273 L34.3200306,29.9319169 L32.3439759,29.9319169 L34.2038917,17.9724299 Z" id="Fill-3" fill="#141C2D"></path>
                        <path d="M70.0580469,2.06506364 C70.0648233,2.00988831 70.0683997,1.95433636 70.0691526,1.89878442 C70.0787524,1.0607974 69.4075187,0.373836364 68.5700766,0.364044156 L68.5700766,0.362349351 L54.7503053,0.362349351 L52.6870994,4.04214805 L65.5613837,4.04214805 L67.3870414,11.402687 L44.5142742,11.402687 L48.6423801,4.04214805 L48.7076964,4.04214805 L50.7727847,0.362349351 L46.8278281,0.362349351 C45.8211658,0.393797403 44.9592536,1.09356364 44.7211407,2.07240779 L44.7173761,2.07071299 L39.1105232,11.9145182 L40.9540629,12.7078753 L40.5839997,15.0822974 L70.3646761,15.0822974 L70.7565742,12.562687 L72.5784672,11.8691351 L70.0616233,2.06393377 L70.0580469,2.06506364 Z" id="Fill-5" fill="#141C2D"></path>
                        <path d="M37.9890209,22.4417065 L46.0221783,22.4417065 L39.0015183,29.4853169 C38.4373884,29.9169273 38.0569725,30.5458883 37.9365043,31.2462195 C37.7332142,32.5532909 38.6314551,33.6116026 39.9415466,33.6116026 L58.7840883,33.6116026 C60.3705038,33.5987974 61.9273668,33.179239 63.3059746,32.3936026 L63.732319,34.0944338 L68.2380174,32.5858688 L66.2420101,25.3771091 L61.7272767,26.0960831 L62.4295686,28.8970312 C61.5384805,29.5555571 60.4633019,29.9174922 59.3557475,29.9318039 L44.7465331,29.9318039 L52.2153723,22.4417065 L70.8002251,22.4417065 L71.3735783,18.7620961 L38.5623742,18.7620961 L37.9890209,22.4417065 Z" id="Fill-7" fill="#141C2D"></path>
                        <path d="M34.7464315,0.098825974 C34.1427729,0.116527273 33.6345478,0.555481818 33.5287616,1.15035844 L33.2004858,3.25304675 L29.9069986,3.25304675 L30.3969653,0.098825974 L25.6535305,0.098825974 L25.1635638,3.25304675 L17.125136,3.25304675 L16.5515945,6.93284545 L23.5359257,6.93284545 C23.6038773,6.93058571 23.6720171,6.93623506 23.7386511,6.94960519 C24.214124,7.04507922 24.5224472,7.50832597 24.4270138,7.98418961 L24.2018889,9.43061169 L22.8936797,17.8411766 L20.4383875,33.6109623 L25.1818223,33.6109623 L29.3336453,6.93341039 L36.3179766,6.93341039 L36.3177883,6.93284545 C36.9212587,6.91457922 37.4291074,6.47581299 37.5354582,5.8815013 L37.7803474,4.30439091 L38.4353932,0.098825974 L34.7464315,0.098825974 Z" id="Fill-9" fill="#141C2D"></path>
                        <g transform="translate(111.244839, 0.188312)">
                            <mask id="mask-2" fill="white">
                                <use xlink:href="#path-1"></use>
                            </mask>
                            <g id="Clip-12"></g>
                            <path d="M19.118715,5.29882727 L19.118715,5.29882727 L33.4809697,5.29882727 L34.0545112,1.61902857 L19.6903742,1.61902857 L19.9371458,0.0419181818 L15.1920169,0.0419181818 L14.9469394,1.61902857 L0.584684805,1.61902857 L0.0113315386,5.29882727 L5.32077855,5.29882727 L1.83868332,8.79389221 C1.27549455,9.22700909 0.895831539,9.85634675 0.775175122,10.5566779 C0.572073292,11.8618662 1.46843188,12.922061 2.77852339,12.922061 L22.0167278,12.922061 L22.0186101,12.911139 C23.4681812,12.8333662 24.880106,12.4202104 26.1431396,11.7038727 L26.3517001,13.0128273 L30.9624317,12.1341649 L29.77582,6.25884026 L25.3553906,6.74411948 L25.5950093,8.25475584 C24.7182268,8.88409351 23.6692125,9.22889221 22.5900811,9.24226234 L7.58350987,9.24226234 L11.5120903,5.29882727 L19.118715,5.29882727 Z" id="Fill-11" fill="#141C2D" mask="url(#mask-2)"></path>
                        </g>
                        <path d="M16.0798862,19.2866571 L14.4232605,29.9319169 L8.62554085,29.9319169 L10.3422125,18.8927091 L13.505067,18.8927091 L14.0784203,15.2130987 L10.9155657,15.2130987 L12.6122848,4.30495584 L15.7751394,4.30495584 L16.3484926,0.625157143 L5.27953702,0.625157143 L4.70618375,4.30495584 L6.81475345,4.30495584 C6.88270503,4.3026961 6.95065662,4.30815714 7.01729058,4.32171558 C7.49295168,4.41718961 7.80127494,4.88043636 7.70565332,5.3563 L7.48071663,6.80196883 L6.17231921,15.2130987 L3.00946466,15.2130987 L2.4361114,18.8927091 L4.54468109,18.8927091 C4.61263268,18.8904494 4.68077249,18.8959104 4.74740646,18.9094688 C5.22306756,19.0049429 5.53101435,19.4680013 5.43558096,19.9438649 L5.21064428,21.3906636 L3.88060022,29.9319169 L0.719627995,29.9319169 L0.146274729,33.6115273 L16.2214364,33.6115273 C17.5791504,33.5708519 18.7224688,32.5839104 18.9615229,31.2461442 L21.0283052,17.9724299 L16.0798862,19.2866571 Z" id="Fill-13" fill="#141C2D"></path>
                        <path d="M22.2349258,10.2190162 L18.5440818,10.2190162 C17.9407997,10.2370942 17.4327628,10.6756721 17.3266002,11.2701721 L16.3666193,17.447737 L21.3150383,16.1335097 L22.2349258,10.2190162 Z" id="Fill-15" fill="#141C2D"></path>
                        <path d="M139.73773,14.6865416 C139.692366,14.6865416 139.648884,14.6884247 139.605403,14.6920026 L139.605403,14.6865416 L113.382867,14.6865416 L113.382867,14.6859766 C112.024588,14.7275935 110.881458,15.7156649 110.642781,17.0538078 L108.066079,33.6116779 L112.809326,33.6116779 L113.709449,27.8297558 L134.26678,27.8297558 L134.593362,25.7276325 C134.606726,25.6611584 134.612373,25.5935545 134.610114,25.5259506 C134.594491,25.0399182 134.188099,24.6589636 133.702462,24.6747818 L114.20111,24.6747818 L114.446187,23.0989896 L135.001636,23.0989896 L135.3301,20.9949831 C135.343088,20.9292623 135.348735,20.8624117 135.346476,20.7953727 C135.331041,20.3095286 134.924837,19.9283857 134.4392,19.9438273 L114.936154,19.9438273 L115.182925,18.3663403 L136.792659,18.3663403 L134.992601,29.9318792 L130.77565,29.9318792 L130.20399,33.6116779 L138.110092,33.6116779 C138.713374,33.5936 139.221411,33.1550221 139.327573,32.5605221 L141.741078,17.0538078 C141.944368,15.7467364 141.047821,14.6865416 139.73773,14.6865416" id="Fill-17" fill="#141C2D"></path>
                        <path d="M100.989326,23.8862266 L96.6652714,23.8862266 L99.345312,6.67001883 L101.247015,6.67001883 L100.989326,23.8862266 Z M91.9220248,23.8862266 L87.3835742,23.8862266 L92.4899194,6.67001883 L94.6020655,6.67001883 L91.9220248,23.8862266 Z M99.916783,2.99022013 L100.346892,0.230888961 L95.6036455,0.230888961 L95.1735364,2.99022013 L86.3456655,2.99022013 L85.7723122,6.67001883 L87.6994267,6.67001883 L80.148895,32.1316422 L84.7434387,32.7905448 L86.2929607,27.5660253 L90.2960808,27.5660253 C90.3634677,27.5637656 90.4310428,27.5692266 90.4971121,27.5824084 C90.9731497,27.6776942 91.2820376,28.1407526 91.1869807,28.6169929 L90.962044,30.0639799 L90.408455,33.6112071 L94.0992991,33.6112071 C94.7023929,33.592376 95.2100534,33.1539864 95.3169689,32.5600513 L96.0936122,27.5660253 L100.934739,27.5660253 L100.856811,32.8231227 L105.654457,32.1642201 L106.035626,6.67001883 L108.04255,6.67001883 L108.614021,2.99022013 L99.916783,2.99022013 Z" id="Fill-19" fill="#141C2D"></path>
                        <path d="M81.8510164,13.2415695 L78.5085889,13.2415695 C82.1866332,9.76571234 84.9357548,5.29556948 86.1387426,0.36217987 L81.3683907,0.36217987 C80.3195646,4.27247208 78.0423394,7.79333571 75.0317642,10.4876994 L74.0700893,16.6707253 C75.0492697,16.0594656 75.9898627,15.3883227 76.8864095,14.6612513 L73.9375742,33.6116214 L77.6267242,33.6116214 C78.2301945,33.5941084 78.7386079,33.1553422 78.8442058,32.5604656 L81.8510164,13.2415695 Z" id="Fill-21" fill="#141C2D"></path>
                        <path d="M5.2060326,43.7466695 C5.1224578,44.2869357 4.9440143,44.7236305 4.66919625,45.0640981 C4.45084767,44.7531955 4.23118146,44.449637 4.00850355,44.1682994 L3.47110251,44.6274032 C3.68775701,44.9013968 3.90723499,45.2047669 4.1221954,45.5380786 C3.83890694,45.6934357 3.50818412,45.7749747 3.13812092,45.7749747 C2.57549685,45.7749747 2.1687285,45.5825201 1.91518061,45.2122994 C1.6751854,44.8494227 1.60271626,44.3611305 1.69777319,43.7466695 C1.79414773,43.124676 2.0177668,42.6360071 2.36994801,42.2733188 C2.74038768,41.8884097 3.20550781,41.7032994 3.76813188,41.7032994 C4.33075595,41.7032994 4.73978308,41.8810656 4.98598993,42.2510981 C5.22598515,42.6137864 5.3044777,43.1097994 5.2060326,43.7466695 M3.87824733,40.992611 C3.07148695,40.992611 2.39479457,41.2517279 1.85325244,41.7848383 C1.33128638,42.2881955 1.01599855,42.9397539 0.891012811,43.7466695 C0.76734469,44.5460526 0.88103654,45.1974227 1.24733511,45.7007799 C1.62605697,46.2190136 2.22143333,46.4854747 3.0281937,46.4854747 C3.57575925,46.4854747 4.06045546,46.3672149 4.48943514,46.1301305 C4.64171445,46.3892474 4.79173499,46.6632409 4.94702601,46.9519227 L5.53619072,46.4930071 C5.38711134,46.2116695 5.22843216,45.9452084 5.07634107,45.6860916 C5.58343684,45.1827344 5.89778351,44.5385201 6.02032224,43.7466695 C6.14643737,42.9322214 6.02634565,42.2733188 5.65891768,41.7773058 C5.27398419,41.2517279 4.67747844,40.992611 3.87824733,40.992611" id="Fill-23" fill="#141C2D"></path>
                        <polygon id="Fill-25" fill="#141C2D" points="16.6531454 46.3819409 17.4525647 46.3819409 18.2704308 41.0964084 17.4710114 41.0964084"></polygon>
                        <path d="M32.5780983,44.3831442 C32.5048762,44.8571247 32.3399854,45.2047481 32.0896374,45.4343 C31.8321367,45.6638519 31.4660263,45.7824883 30.9922475,45.7824883 C30.511316,45.7824883 30.1817225,45.6638519 29.9949969,45.4343 C29.8086476,45.2047481 29.7589545,44.8571247 29.8321766,44.3831442 L30.3407782,41.0963519 L29.5340178,41.0963519 L29.027675,44.3682675 C28.9211359,45.0569234 29.0323808,45.5825013 29.3597154,45.9525338 C29.6750032,46.3080662 30.1804049,46.4854558 30.8836379,46.4854558 C31.5793417,46.4854558 32.1408364,46.3005338 32.5733925,45.9451896 C33.0068897,45.5825013 33.2805784,45.0569234 33.3871174,44.3682675 L33.8934602,41.0963519 L33.0866999,41.0963519 L32.5780983,44.3831442 Z" id="Fill-27" fill="#141C2D"></path>
                        <polygon id="Fill-29" fill="#141C2D" points="48.3717973 43.3246253 45.6036643 43.3246253 45.9483162 41.0963331 45.1415558 41.0963331 44.3236898 46.3818656 45.1304502 46.3818656 45.4971252 44.0129045 48.2652582 44.0129045 47.8985832 46.3818656 48.7053436 46.3818656 49.5233978 41.0963331 48.7166374 41.0963331"></polygon>
                        <path d="M63.8156115,44.3831442 C63.7422012,44.8571247 63.5773104,45.2047481 63.3271506,45.4343 C63.0694617,45.6638519 62.7035396,45.7824883 62.2297608,45.7824883 C61.7488292,45.7824883 61.4190475,45.6638519 61.2325101,45.4343 C61.0459726,45.2047481 60.9962795,44.8571247 61.0696898,44.3831442 L61.5781032,41.0963519 L60.771531,41.0963519 L60.2651882,44.3682675 C60.1584609,45.0569234 60.2695175,45.5825013 60.5972286,45.9525338 C60.9123282,46.3080662 61.4179182,46.4854558 62.1209629,46.4854558 C62.8166667,46.4854558 63.3781614,46.3005338 63.8109057,45.9451896 C64.2442147,45.5825013 64.5179034,45.0569234 64.6246306,44.3682675 L65.1309735,41.0963519 L64.3240249,41.0963519 L63.8156115,44.3831442 Z" id="Fill-31" fill="#141C2D"></path>
                        <polygon id="Fill-33" fill="#141C2D" points="75.5758663 46.3819409 76.3752856 46.3819409 77.1933399 41.0964084 76.3937323 41.0964084"></polygon>
                        <path d="M88.2910385,45.3232338 C88.1282182,45.3232338 87.9945738,45.3750195 87.8820113,45.4785909 C87.754955,45.582539 87.6826741,45.7156753 87.6574511,45.8783766 C87.6344869,46.0265779 87.6657333,46.1597143 87.7594726,46.2708182 C87.8407886,46.3672338 87.9586216,46.4188312 88.1216301,46.4188312 C88.2695801,46.4188312 88.4107537,46.3672338 88.5366806,46.2708182 C88.6575253,46.1597143 88.7373354,46.0265779 88.7602997,45.8783766 C88.7855227,45.7156753 88.7469353,45.582539 88.6592194,45.4785909 C88.5643507,45.3750195 88.4389885,45.3232338 88.2910385,45.3232338" id="Fill-35" fill="#141C2D"></path>
                        <path d="M101.489495,42.2881766 C101.839041,41.8957351 102.29795,41.7034688 102.867726,41.7034688 C103.25266,41.7034688 103.551007,41.7848195 103.77632,41.9550532 C104.001633,42.1254753 104.13076,42.3917481 104.164642,42.7470922 L104.949191,42.7470922 C104.950132,42.2141701 104.779594,41.7848195 104.443036,41.4739169 C104.093678,41.1481377 103.6071,40.9925922 102.992712,40.9925922 C102.149058,40.9925922 101.469919,41.2665857 100.938918,41.8290727 C100.462504,42.325274 100.171498,42.9617675 100.050277,43.7466506 C99.9262322,44.5460338 100.01263,45.1827156 100.32453,45.6565078 C100.676523,46.2041182 101.284135,46.4854558 102.150188,46.4854558 C102.720153,46.4854558 103.233837,46.3227545 103.691239,45.9969753 C104.181771,45.6489753 104.529999,45.167839 104.743642,44.5533779 L103.958905,44.5533779 C103.791379,44.9678519 103.55816,45.2789429 103.259436,45.4860857 C102.97803,45.6785403 102.637708,45.7749558 102.252774,45.7749558 C101.660598,45.7749558 101.252512,45.5896571 101.028516,45.2196247 C100.815814,44.871813 100.758216,44.3831442 100.856849,43.7466506 C100.952094,43.1320013 101.160655,42.6435208 101.489495,42.2881766" id="Fill-37" fill="#141C2D"></path>
                        <path d="M119.987291,43.7466695 C119.889975,44.3758188 119.657886,44.8718318 119.306834,45.2269877 C118.947312,45.589676 118.482003,45.7749747 117.919567,45.7749747 C117.356755,45.7749747 116.949987,45.5825201 116.696627,45.2122994 C116.456444,44.8494227 116.383974,44.3611305 116.47922,43.7466695 C116.575406,43.124676 116.799025,42.6360071 117.151394,42.2733188 C117.521646,41.8884097 117.986954,41.7032994 118.54939,41.7032994 C119.112014,41.7032994 119.521041,41.8810656 119.767248,42.2510981 C120.007243,42.6137864 120.085736,43.1097994 119.987291,43.7466695 M118.659506,40.992611 C117.852745,40.992611 117.176053,41.2517279 116.634511,41.7848383 C116.112545,42.2881955 115.797257,42.9397539 115.672271,43.7466695 C115.548791,44.5460526 115.662295,45.1974227 116.028593,45.7007799 C116.407315,46.2190136 117.00288,46.4854747 117.80964,46.4854747 C118.608871,46.4854747 119.285375,46.2265461 119.832,45.708124 C120.353966,45.2047669 120.676783,44.5533968 120.80158,43.7466695 C120.927696,42.9322214 120.807604,42.2733188 120.440176,41.7773058 C120.055242,41.2517279 119.458737,40.992611 118.659506,40.992611" id="Fill-39" fill="#141C2D"></path>
                        <polygon id="Fill-41" fill="#141C2D" points="134.402627 45.3307851 134.380415 45.3307851 133.192486 41.0964084 132.237776 41.0964084 131.41991 46.3819409 132.22667 46.3819409 132.810941 42.6062916 132.840493 42.6062916 133.877272 46.3819409 134.572976 46.3819409 136.778109 42.6062916 136.807661 42.6062916 136.223579 46.3819409 137.030339 46.3819409 137.848393 41.0964084 136.893495 41.0964084"></polygon>
                    </g>
                    <g id="编组" transform="translate(0.000000, 32.708422)">
                        <mask id="mask-4" fill="white">
                            <use xlink:href="#path-3"></use>
                        </mask>
                        <g id="Clip-44"></g>
                        <path d="M0,0.188876623 L0,0.193584416 C0.0425403277,2.39475974 0.37194552,4.582 0.978804001,6.69937662 L0.978804001,6.69937662 C0.990097893,6.73835714 1.02077963,6.76811039 1.05974356,6.77978571 L1.05974356,6.77978571 C1.08063726,6.78637662 1.1017192,6.79277922 1.12317759,6.80012338 L1.12317759,6.80012338 C3.63851564,7.65637662 6.87383933,12.9390844 6.56664546,15.7300519 L6.56664546,15.7300519 C6.53426963,16.0200519 6.46594158,16.2554416 6.36768472,16.4413052 L6.36768472,16.4413052 C6.34509694,16.4838636 6.3520615,16.5367792 6.38443733,16.5725584 L6.38443733,16.5725584 C8.08322696,18.5040714 10.0630463,20.1668636 12.2570731,21.5050065 L12.2570731,21.5050065 C12.3609769,21.5684675 12.4776805,21.4451234 12.4095406,21.3438117 L12.4095406,21.3438117 C10.0558935,17.8457338 9.1034419,13.5817922 9.75528772,9.40277922 L9.75528772,9.40277922 C9.75528772,9.40164935 9.75585242,9.40014286 9.75641711,9.39901299 L9.75641711,9.39901299 C9.75585242,9.39901299 9.75585242,9.39844805 9.75528772,9.39844805 L9.75528772,9.39844805 C9.8936379,8.38683766 9.24480379,7.4352987 8.25357651,7.19501299 L8.25357651,7.19501299 C8.25282358,7.19444805 8.25282358,7.19369481 8.25225888,7.19312987 L8.25225888,7.19312987 C4.82644488,5.85253896 1.98640743,3.35119481 0.221548521,0.133512987 L0.221548521,0.133512987 C0.198396042,0.0913311688 0.159243882,0.0725 0.120091722,0.0725 L0.120091722,0.0725 C0.0604223239,0.0725 0.00112938923,0.116376623 0,0.188876623" id="Fill-43" fill="url(#radialGradient-5)" mask="url(#mask-4)"></path>
                    </g>
                    <g id="编组" transform="translate(14.682060, 39.864266)">
                        <mask id="mask-7" fill="white">
                            <use xlink:href="#path-6"></use>
                        </mask>
                        <g id="Clip-46"></g>
                        <path d="M35.0116309,0.13388961 C30.3973229,6.43950649 22.5164449,10.0147922 14.2655036,8.7370974 L14.2655036,8.7370974 C12.2625318,8.42788961 10.313206,7.83866234 8.47531326,6.98561039 L8.47531326,6.98561039 C8.45517248,6.97544156 8.43503171,6.96508442 8.41489093,6.95491558 L8.41489093,6.95491558 C8.05668632,6.75794156 7.67815269,6.60126623 7.28568993,6.48752597 L7.28568993,6.48752597 C7.14602213,6.44666234 7.00522494,6.41182468 6.86329836,6.38263636 L6.86329836,6.38263636 C6.2995449,6.26512987 5.71866237,6.23556494 5.1458738,6.29676623 L5.1458738,6.29676623 C4.59002607,6.35683766 4.04302522,6.50127273 3.52971781,6.72404545 L3.52971781,6.72404545 C3.01866918,6.94531169 2.5418787,7.24303247 2.11911066,7.60496753 L2.11911066,7.60496753 C1.69050745,7.97123377 1.31856193,8.40322078 1.02040317,8.88153247 L1.02040317,8.88153247 C0.710574058,9.37905195 0.480555118,9.92496753 0.339946159,10.4936688 L0.339946159,10.4936688 C0.201407746,11.0533312 0.150020536,11.6333312 0.188796233,12.2082468 L0.188796233,12.2082468 C0.227195467,12.7679091 0.351804746,13.3211688 0.55547127,13.8442987 L0.55547127,13.8442987 C0.757443711,14.3625325 1.03715578,14.8504481 1.38274888,15.2867662 L1.38274888,15.2867662 C1.73135369,15.7272273 2.14791009,16.1143961 2.61265376,16.4301948 L2.61265376,16.4301948 C3.09471473,16.7574805 3.62797468,17.0066169 4.18739881,17.1689416 L4.18739881,17.1689416 L4.18325771,17.1864545 C5.09542775,17.4327662 6.02171515,17.6287987 6.95553182,17.7732338 L6.95553182,17.7732338 C19.5860563,19.7303571 31.4853012,12.0704026 35.2188738,0.239909091 L35.2188738,0.239909091 C35.2467321,0.152720779 35.1768982,0.0849285714 35.1046173,0.0849285714 L35.1046173,0.0849285714 C35.0709238,0.0849285714 35.0368539,0.0996168831 35.0116309,0.13388961 M6.72551288,14.2079286 C5.59028847,14.0382597 4.58099096,13.1418961 4.66776569,12.0385779 L4.66776569,12.0385779 C4.76075207,10.8646429 6.05710268,10.117987 7.45698063,10.4684351 L7.45698063,10.4684351 C8.110897,10.6318896 11.0217095,11.7186364 14.6566488,11.9954545 L14.6566488,11.9954545 C17.6133898,12.2206753 21.082497,11.8385909 22.5627498,11.6450065 L22.5627498,11.6450065 C22.6956413,11.6274935 22.7502285,11.8109091 22.6286309,11.8683442 L22.6286309,11.8683442 C21.1933654,12.553987 17.6655299,14.116974 14.4475235,14.5849286 L14.4475235,14.5849286 C13.7025031,14.6933961 12.9170129,14.7357662 12.1433813,14.7357662 L12.1433813,14.7357662 C9.57496191,14.7357662 7.13472824,14.2693182 6.72551288,14.2079286" id="Fill-45" fill="url(#radialGradient-8)" mask="url(#mask-7)"></path>
                    </g>
                    <g id="编组" transform="translate(50.257821, 0.130500)">
                        <path d="M23.4313255,21.9004045 C23.3330686,21.9572747 23.127708,22.0536903 23.127708,22.0536903 C13.0932729,26.1319565 4.80205007,33.9651578 0.267364077,44.0840864 C0.210518153,44.2117617 0.0175808257,44.1513136 0.0433685465,44.0134695 C2.32209955,31.9570019 10.5485707,22.4289955 21.1844056,18.0170409 C21.187982,18.0151578 21.1915584,18.013463 21.1951348,18.0115799 C22.2667369,17.3967422 23.634992,17.7647032 24.2525797,18.8361968 C24.8720496,19.9090084 24.5042452,21.2812357 23.4313255,21.9004045" id="Fill-47" fill="#FFC002"></path>
                        <g transform="translate(23.905405, 0.000000)">
                            <mask id="mask-10" fill="white">
                                <use xlink:href="#path-9"></use>
                            </mask>
                            <g id="Clip-50"></g>
                            <path d="M13.3731544,2.75142208 C13.3424726,2.82392208 13.3072733,2.89397403 13.2677447,2.96176623 C13.2694388,2.9628961 13.2718858,2.96346104 13.2737681,2.96477922 C10.3815905,7.888 5.70253093,11.4932273 0.224993158,13.0405844 C0.0979368695,13.0757987 0.0158679187,12.9106494 0.122030506,12.8313701 C4.21926641,9.78354545 7.54268245,5.81016883 9.81915468,1.23155844 C10.2390992,0.250077922 11.3747001,-0.206012987 12.3559511,0.21411039 C13.3372021,0.633480519 13.7929107,1.76975325 13.3731544,2.75142208" id="Fill-49" fill="#FFA508" mask="url(#mask-10)"></path>
                        </g>
                    </g>
                    <g id="编组" transform="translate(56.657693, 4.461669)">
                        <mask id="mask-12" fill="white">
                            <use xlink:href="#path-11"></use>
                        </mask>
                        <g id="Clip-52"></g>
                        <path d="M9.57891477,1.03853896 C9.57778538,1.0407987 9.57590306,1.04324675 9.57420898,1.04569481 L9.57420898,1.04569481 C7.33030081,4.25772727 4.03662535,6.57603247 0.273500426,7.60967532 L0.273500426,7.60967532 C0.144185359,7.64564286 0.16394967,7.83508442 0.297594063,7.84224026 L0.297594063,7.84224026 C4.85430315,8.08309091 9.16254661,6.47585065 12.4076583,3.61784416 L12.4076583,3.61784416 C12.4093524,3.61614935 12.4117994,3.61426623 12.4142464,3.61238312 L12.4142464,3.61238312 C12.6405007,3.45005844 12.8298617,3.24084416 12.9693412,2.99886364 L12.9693412,2.99886364 C13.5091893,2.06144805 13.1875016,0.864162338 12.2512379,0.323707792 L12.2512379,0.323707792 C11.9431029,0.145941558 11.6067331,0.0615779221 11.2748809,0.0615779221 L11.2748809,0.0615779221 C10.5991297,0.0615779221 9.94182518,0.412025974 9.57891477,1.03853896" id="Fill-51" mask="url(#mask-12)"></path>
                    </g>
                    <g id="编组" transform="translate(17.129070, 9.546084)">
                        <mask id="mask-14" fill="white">
                            <use xlink:href="#path-13"></use>
                        </mask>
                        <g id="Clip-54"></g>
                        <path d="M56.2449014,0.11712987 C55.4537642,0.578116883 47.6909073,5.03488961 42.440565,5.6292013 L42.440565,5.6292013 C41.278047,5.76083117 40.113082,5.86911039 38.946423,5.95818182 L38.946423,5.95818182 C37.8215513,6.04386364 36.695362,6.11165584 35.5684198,6.16438312 L35.5684198,6.16438312 C34.5032175,6.2140974 33.4372623,6.25062987 32.3711189,6.27605195 L32.3711189,6.27605195 C31.3768799,6.29996753 30.3824526,6.31446753 29.3878372,6.32237662 L29.3878372,6.32237662 C28.4867728,6.32972078 27.585332,6.33141558 26.6840794,6.33122727 L26.6840794,6.33122727 C25.8967069,6.33122727 25.1091461,6.32934416 24.3217736,6.33085065 L24.3217736,6.33085065 C23.6631514,6.33235714 23.004341,6.33555844 22.3457189,6.34968182 L22.3457189,6.34968182 C21.7847889,6.36173377 21.2249883,6.38357792 20.6655642,6.42632468 L20.6655642,6.42632468 C19.7055833,6.49976623 18.7480495,6.60936364 17.7969155,6.76057792 L17.7969155,6.76057792 C16.9041333,6.90237662 16.0169981,7.08051948 15.1398391,7.29971429 L15.1398391,7.29971429 C14.3118086,7.50629221 13.4924367,7.74959091 12.6873704,8.033 L12.6873704,8.033 C11.9271032,8.3004026 11.1794475,8.60358442 10.4496739,8.94537013 L10.4496739,8.94537013 C9.75999351,9.26832468 9.0861246,9.62592857 8.43409055,10.0195 L8.43409055,10.0195 C7.81029123,10.3959351 7.20663269,10.805513 6.62800894,11.2486104 L6.62800894,11.2486104 C6.07347883,11.6740065 5.54210119,12.1299091 5.03989945,12.6163182 L5.03989945,12.6163182 C4.55614439,13.0846494 4.09949468,13.5808506 3.67446787,14.1032273 L3.67446787,14.1032273 C3.25904086,14.6139286 2.87410736,15.1491104 2.52362024,15.7061364 L2.52362024,15.7061364 C2.17915652,16.2533701 1.86819802,16.8213182 1.59319174,17.4064026 L1.59319174,17.4064026 C1.3219501,17.9841429 1.08553128,18.5782662 0.886382315,19.1844416 L0.886382315,19.1844416 C0.687233348,19.7898636 0.525165993,20.4073377 0.400368483,21.0323442 L0.400368483,21.0323442 C0.339381464,21.3374091 0.287053096,21.6443571 0.243948074,21.9524351 L0.243948074,21.9524351 C-0.654292828,28.3540909 3.66787976,33.4292792 10.1477505,34.9485779 L10.1477505,34.9485779 C16.1128079,36.3462273 22.3086373,35.9722403 31.5724524,26.1431234 L31.5724524,26.1431234 C33.2324664,24.3820325 37.5730857,17.2830584 43.3956518,12.113526 L43.3956518,12.113526 C49.1559134,7.00048701 53.7116813,2.93163636 56.5227311,0.415792208 L56.5227311,0.415792208 C56.572236,0.371727273 56.597459,0.306194805 56.5888004,0.240097403 L56.5888004,0.240097403 C56.582777,0.194902597 56.5679067,0.151214286 56.5374132,0.121272727 L56.5374132,0.121272727 C56.5091784,0.0937792208 56.4707792,0.080974026 56.4303094,0.075512987 L56.4303094,0.075512987 C56.4199567,0.0743831169 56.409604,0.0738181818 56.3994395,0.0738181818 L56.3994395,0.0738181818 C56.345417,0.0738181818 56.2921475,0.0896363636 56.2449014,0.11712987 M13.2413358,26.5894221 C12.6371126,26.4958312 12.0456891,26.3101558 11.5062175,26.0203442 L11.5062175,26.0203442 C11.0121097,25.755013 10.5641186,25.4023052 10.2023376,24.9727662 L10.2023376,24.9727662 C9.84959172,24.5543377 9.58249117,24.0662338 9.42249436,23.5427273 L9.42249436,23.5427273 C9.25289774,22.9889026 9.20414578,22.4028766 9.26005054,21.8272078 L9.26005054,21.8272078 C9.31068483,21.3052078 9.43661173,20.7867857 9.61449053,20.293974 L9.61449053,20.293974 C9.78841647,19.8128377 10.0184354,19.3529805 10.2947593,18.9226883 L10.2947593,18.9226883 C10.5852006,18.4703636 10.9257114,18.0513701 11.3002922,17.6662727 L11.3002922,17.6662727 C11.7080017,17.2474675 12.1558045,16.8685844 12.627701,16.524539 L12.627701,16.524539 C13.1483494,16.1447143 13.698362,15.8065065 14.2653154,15.5008766 L14.2653154,15.5008766 C14.9030438,15.1570195 15.5624189,14.8542143 16.2336526,14.5822922 L16.2336526,14.5822922 C16.4066374,14.5120519 16.5807515,14.4438831 16.7552422,14.3777857 L16.7552422,14.3777857 C18.7218853,13.6322597 23.70268,12.7458766 27.5181333,12.2018442 L27.5181333,12.2018442 C31.7896716,11.5920909 35.8677079,11.0497532 37.1642468,10.8783896 L37.1642468,10.8783896 C37.2854679,10.8623831 37.3509724,11.0154805 37.2561037,11.0919351 L37.2561037,11.0919351 C35.2410851,12.7208312 25.0101363,21.6458636 22.7626517,23.3890649 L22.7626517,23.3890649 C20.2299964,25.3533442 16.8531226,26.6626753 14.2506333,26.6628636 L14.2506333,26.6628636 C13.8986403,26.6628636 13.560953,26.6389481 13.2413358,26.5894221" id="Fill-53" fill="url(#radialGradient-15)" mask="url(#mask-14)"></path>
                    </g>
                    <g id="编组" transform="translate(0.752926, 6.721409)">
                        <mask id="mask-17" fill="white">
                            <use xlink:href="#path-16"></use>
                        </mask>
                        <g id="Clip-56"></g>
                        <path d="M0.705680038,17.1246883 C0.705680038,17.1246883 0.267288785,18.3208442 0.169408385,18.9501818 L0.169408385,18.9501818 C-0.37552192,22.4529675 2.02066557,25.7346753 5.52271334,26.280026 L5.52271334,26.280026 C8.53498266,26.7468506 11.3804788,25.0322727 12.4592338,22.3121104 L12.4592338,22.3121104 L12.4718453,22.3175714 C16.4429661,10.8891234 26.0717622,5.46555844 40.4741101,5.46555844 L40.4741101,5.46555844 C48.7969558,5.46555844 51.8030135,4.75957792 56.309653,1.75016883 L56.309653,1.75016883 C56.4109216,1.68294156 56.3563344,1.52532468 56.2351133,1.53436364 L56.2351133,1.53436364 C47.0544965,2.18874675 38.3536818,1.88594156 29.2579574,0.472850649 L29.2579574,0.472850649 C29.2506164,0.472474026 28.2305897,0.319753247 28.2268251,0.319 L28.2268251,0.319 C27.0844479,0.167409091 25.9465882,0.0934025974 24.8203989,0.0934025974 L24.8203989,0.0934025974 C14.073131,0.093025974 4.33271356,6.82855844 0.705680038,17.1246883 M6.72419525,19.7506948 C5.43142105,19.5507078 4.54616812,18.3400519 4.74625825,17.0467273 L4.74625825,17.0467273 C4.82813897,16.5147468 5.6806396,12.1287792 11.1820828,7.98761688 L11.1820828,7.98761688 C15.386046,4.82341558 18.5968996,4.93188312 19.6468551,4.84469481 L19.6468551,4.84469481 C19.7389003,4.83697403 19.7823818,4.95523377 19.7076539,5.00965584 L19.7076539,5.00965584 C18.6640982,5.76685714 15.1264747,8.62542857 13.0015288,11.3090584 L13.0015288,11.3090584 C10.506708,14.4598896 9.61976101,17.2109351 9.42701192,17.7719156 L9.42701192,17.7719156 C9.03153745,18.9232532 8.19353064,19.7783766 7.07694116,19.7783766 L7.07694116,19.7783766 C6.96211992,19.7783766 6.84466344,19.7693377 6.72419525,19.7506948" id="Fill-55" fill="url(#radialGradient-18)" mask="url(#mask-17)"></path>
                    </g>
                    <g id="编组" transform="translate(27.293573, 23.481149)">
                        <mask id="mask-20" fill="white">
                            <use xlink:href="#path-19"></use>
                        </mask>
                        <g id="Clip-58"></g>
                        <path d="M23.6309638,0.0873766234 C19.785017,3.3833961 14.1898345,8.21942857 12.5981486,9.454 L12.5981486,9.454 C9.7229119,11.683987 5.75988508,13.069961 3.07683273,12.6543571 L3.07683273,12.6543571 C2.47260949,12.5607662 1.881186,12.3750909 1.34171441,12.0852792 L1.34171441,12.0852792 C0.901817302,11.8491364 0.502389977,11.5399286 0.163761439,11.1727208 L0.163761439,11.1727208 L0.159243882,11.1753571 C0.159243882,11.1753571 5.91291732,19.3848052 24.0783902,7.01046753 L24.0783902,7.01046753 C31.8896226,1.68953247 27.8620323,0.0873766234 23.6780217,0.0871883117 L23.6780217,0.0871883117 C23.6622103,0.0871883117 23.6467753,0.0873766234 23.6309638,0.0873766234" id="Fill-57" fill="url(#linearGradient-21)" mask="url(#mask-20)"></path>
                    </g>
                    <g id="编组" transform="translate(24.470100, 39.864266)">
                        <mask id="mask-23" fill="white">
                            <use xlink:href="#path-22"></use>
                        </mask>
                        <g id="Clip-60"></g>
                        <path d="M25.2235909,0.13388961 C20.6092829,6.43950649 12.7284049,10.0147922 4.47746361,8.7370974 L4.47746361,8.7370974 C3.00210481,8.50942857 1.55667482,8.12847403 0.162820281,7.60327273 L0.162820281,7.60327273 C4.04735454,10.1603571 10.4406388,11.8508312 17.7012939,11.9201299 L17.7012939,11.9201299 C21.2370351,8.89019481 23.9643219,4.88706494 25.4308338,0.239909091 L25.4308338,0.239909091 C25.4586921,0.152720779 25.3888582,0.0849285714 25.3165773,0.0849285714 L25.3165773,0.0849285714 C25.2828838,0.0849285714 25.2488139,0.0996168831 25.2235909,0.13388961" id="Fill-59" fill="url(#linearGradient-24)" mask="url(#mask-23)"></path>
                    </g>
                    <g id="编组" transform="translate(17.505533, 8.039591)">
                        <mask id="mask-26" fill="white">
                            <use xlink:href="#path-25"></use>
                        </mask>
                        <g id="Clip-62"></g>
                        <path d="M0.100892105,13.1181688 C5.18032017,7.06413636 13.1669844,4.14737662 23.7215032,4.14737662 L23.7215032,4.14737662 C32.0443489,4.14737662 35.0504066,3.4413961 39.5570461,0.431987013 L39.5570461,0.431987013 C39.6583146,0.36475974 39.6035393,0.207142857 39.4825064,0.216181818 L39.4825064,0.216181818 C33.128939,0.669071429 27.0050142,0.662480519 20.8210434,0.147824675 L20.8210434,0.147824675 C11.3435854,2.8323961 3.8907459,7.46486364 0.100892105,13.1181688" id="Fill-61" mask="url(#mask-26)"></path>
                    </g>
                    <g id="编组" transform="translate(60.045861, 4.461669)">
                        <mask id="mask-28" fill="white">
                            <use xlink:href="#path-27"></use>
                        </mask>
                        <g id="Clip-64"></g>
                        <path d="M6.19074707,1.03853896 C6.18961768,1.0407987 6.18773537,1.04324675 6.18604129,1.04569481 L6.18604129,1.04569481 C4.61242562,3.29809091 2.52154969,5.10851948 0.115950628,6.34723377 L0.115950628,6.34723377 C3.39946159,6.34007792 6.41210736,5.39625974 8.77704841,3.82611688 L8.77704841,3.82611688 C8.85836444,3.75738312 8.93949223,3.68808442 9.01949064,3.61784416 L9.01949064,3.61784416 C9.02118472,3.61614935 9.02363173,3.61426623 9.02607874,3.61238312 L9.02607874,3.61238312 C9.25233305,3.45005844 9.44169398,3.24084416 9.58117355,2.99886364 L9.58117355,2.99886364 C10.1210216,2.06144805 9.7993339,0.864162338 8.86307023,0.323707792 L8.86307023,0.323707792 C8.5549352,0.145941558 8.21856544,0.0615779221 7.88671324,0.0615779221 L7.88671324,0.0615779221 C7.21077378,0.0615779221 6.55365748,0.411837662 6.19074707,1.03853896" id="Fill-63" fill="url(#radialGradient-29)" mask="url(#mask-28)"></path>
                    </g>
                    <g id="编组" transform="translate(50.257821, 0.130500)">
                        <g transform="translate(25.975952, 0.000000)">
                            <mask id="mask-31" fill="white">
                                <use xlink:href="#path-30"></use>
                            </mask>
                            <g id="Clip-66"></g>
                            <path d="M10.2854418,0.214072727 C9.30419084,-0.206050649 8.16840173,0.25004026 7.74845717,1.23170909 C5.87856507,4.99267013 3.30092238,8.34424156 0.169126037,11.1109169 C4.86512646,9.66374156 8.83361199,6.55848182 11.3937491,2.47833247 C11.6322385,1.56746883 11.1767182,0.595215584 10.2854418,0.214072727" id="Fill-65" fill="#FFC002" mask="url(#mask-31)"></path>
                        </g>
                        <path d="M2.99615669,35.1125597 C1.64766595,37.8760338 0.639874292,40.8568195 0.0433685465,44.0134883 C0.0175808257,44.1513325 0.210518153,44.2117805 0.267364077,44.0841052 C4.80205007,33.9651766 13.0932729,26.1319753 23.127708,22.0537091 C23.127708,22.0537091 23.3330686,21.9572935 23.4313255,21.9004234 C23.5928281,21.8072091 23.7362605,21.6953519 23.8648227,21.5716312 C15.9229576,24.516261 8.81740526,29.1809299 2.99615669,35.1125597" id="Fill-67" fill="#FFA508"></path>
                    </g>
                </g>
            </g>
        </g>
    </g>
</svg>