<?xml version="1.0" encoding="UTF-8"?>
<svg width="127px" height="127px" viewBox="0 0 127 127" version="1.1" xmlns="http://www.w3.org/2000/svg" xmlns:xlink="http://www.w3.org/1999/xlink">
    <!-- Generator: Sketch 55 (78076) - https://sketchapp.com -->
    <title>web_bg_circle02</title>
    <desc>Created with Sketch.</desc>
    <defs>
        <path d="M82.5036275,0.300738916 C127.803725,0.300738916 164.527157,36.9827586 164.527157,82.2317734 C164.527157,127.480788 127.803725,164.162808 82.5036275,164.162808 C37.2035294,164.162808 0.480098039,127.480788 0.480098039,82.2317734 C0.480098039,36.9827586 37.2035294,0.300738916 82.5036275,0.300738916 Z" id="path-1"></path>
    </defs>
    <g id="web端" stroke="none" stroke-width="1" fill="none" fill-rule="evenodd">
        <g id="02比分数据" transform="translate(-1793.000000, 0.000000)">
            <g id="web_bg_circle02" transform="translate(1793.000000, -38.000000)">
                <g id="形状-843" transform="translate(0.008137, 0.780296)">
                    <mask id="mask-2" fill="white">
                        <use xlink:href="#path-1"></use>
                    </mask>
                    <use id="蒙版" fill="#F8FBFF" fill-rule="nonzero" xlink:href="#path-1"></use>
                    <path d="M96.0358824,-28.358867 L-24.3222549,91.8635468 L-34.1764706,82.0123153 L86.1735294,-38.2019704 L96.0358824,-28.358867 Z M107.476863,-16.9307882 L-12.8812745,103.291626 L-21.9217647,94.26133 L98.4363725,-25.9610837 L107.476863,-16.9307882 Z M118.909706,-5.50270936 L-1.44029412,114.711576 L-9.65892157,106.502217 L110.691078,-13.712069 L118.909706,-5.50270936 Z M130.350686,5.91724138 L9.99254902,126.139655 L2.59578431,118.751232 L122.953922,-1.47118227 L130.350686,5.91724138 Z M141.783529,17.3453202 L21.4335294,137.559606 L14.8586275,130.992118 L135.208627,10.7778325 L141.783529,17.3453202 Z M153.22451,28.7652709 L32.8663725,148.987685 L27.1133333,143.241133 L147.471471,23.0187192 L153.22451,28.7652709 Z M164.657353,40.1933498 L44.3073529,160.407635 L39.3761765,155.490148 L159.734314,35.267734 L164.657353,40.1933498 Z M176.098333,51.6133005 L55.7401961,171.835714 L51.6308824,167.731034 L171.98902,47.5086207 L176.098333,51.6133005 Z M187.531176,63.0413793 L67.1811765,183.263793 L63.8937255,179.980049 L184.251863,59.7576355 L187.531176,63.0413793 Z M198.972157,74.46133 L78.6140196,194.683744 L76.1484314,192.220936 L196.506569,71.9985222 L198.972157,74.46133 Z" fill="#E5EFFF" fill-rule="nonzero" mask="url(#mask-2)"></path>
                </g>
            </g>
        </g>
    </g>
</svg>