<?xml version="1.0" encoding="UTF-8"?>
<svg width="608px" height="62px" viewBox="0 0 608 62" version="1.1" xmlns="http://www.w3.org/2000/svg" xmlns:xlink="http://www.w3.org/1999/xlink">
    <!-- Generator: Sketch 55 (78076) - https://sketchapp.com -->
    <title>标题</title>
    <desc>Created with Sketch.</desc>
    <defs>
        <path d="M51.7824,22.5454545 L51.7824,30.1460055 L32.643,30.1460055 L32.643,37.9173554 L52.7868,37.9173554 L52.7868,45.6033058 L32.643,45.6033058 L32.643,53.5454545 L54.8514,53.5454545 L54.8514,61.231405 L-2.84217094e-14,61.231405 L-2.84217094e-14,53.5454545 L22.6548,53.5454545 L22.6548,45.6033058 L2.511,45.6033058 L2.511,37.9173554 L22.6548,37.9173554 L22.6548,30.1460055 L3.1806,30.1460055 L3.1806,22.5454545 L51.7824,22.5454545 Z M18.321,10.3333333 L11.7738,20.15427 L0.0558,20.15427 L12.3793333,0.683195592 L41.0543333,0.683195592 L55.1862,20.15427 L43.3008,20.15427 L35.9038125,10.4187328 L18.321,10.3333333 Z M90.0632667,0.683195592 L100.107267,0.683195592 L100.107267,5.97796143 L101.669667,5.97796143 L101.111667,1.19559229 L109.983867,1.19559229 L110.541867,5.97796143 L113.164467,5.97796143 L113.164467,13.6639118 L100.107267,13.6639118 L100.107267,52.862259 L98.3216667,61.7438017 L88.2776667,61.7438017 L90.0632667,53.0330579 L90.0632667,13.6639118 L76.9502667,13.6639118 L76.9502667,5.97796143 L90.0632667,5.97796143 L90.0632667,0.683195592 Z M75.1646667,35.4407713 L71.5376667,35.4407713 L71.5376667,53.1184573 L75.2204667,53.0330579 L75.2204667,60.7190083 L57.8108667,61.231405 L57.8108667,53.5454545 L61.4936667,53.4600551 L61.4936667,35.4407713 L57.8666667,35.4407713 L57.8666667,27.7548209 L61.4936667,27.7548209 L61.4936667,9.82093664 L57.8108667,9.82093664 L57.8108667,2.13498623 L75.2204667,2.13498623 L75.2204667,9.82093664 L71.5376667,9.82093664 L71.5376667,27.7548209 L75.1646667,27.7548209 L75.1646667,35.4407713 Z M113.052867,60.9752066 L104.124867,60.9752066 L102.339267,37.3195592 L111.267267,37.3195592 L113.052867,60.9752066 Z M78.8474667,37.3195592 L87.7754667,37.3195592 L85.9898667,60.9752066 L77.0618667,60.9752066 L78.8474667,37.3195592 Z M111.267267,33.7327824 L102.339267,33.7327824 L103.901667,17.3360882 L112.829667,17.3360882 L111.267267,33.7327824 Z M77.2850667,17.3360882 L86.2130667,17.3360882 L87.7754667,33.7327824 L78.8474667,33.7327824 L77.2850667,17.3360882 Z M118.802333,41.4187328 L115.510133,41.4187328 L115.510133,38.0027548 L122.652533,33.7327824 L115.565933,33.7327824 L115.565933,28.1818182 L126.725933,28.1818182 L126.725933,26.3030303 L116.681933,26.3030303 L116.681933,20.7520661 L126.725933,20.7520661 L126.725933,18.8732782 L116.681933,18.8732782 L116.681933,13.2369146 L126.725933,13.2369146 L126.725933,10.7603306 L136.769933,10.7603306 L136.769933,13.2369146 L149.994533,13.2369146 L149.994533,10.7603306 L159.982733,10.7603306 L159.982733,13.2369146 L170.026733,13.2369146 L170.026733,18.8732782 L159.982733,18.8732782 L159.982733,20.7520661 L170.026733,20.7520661 L170.026733,26.3030303 L159.982733,26.3030303 L159.982733,28.1818182 L171.142733,28.1818182 L171.142733,33.7327824 L164.000333,33.7327824 L171.142733,38.0027548 L171.142733,41.4187328 L167.962133,41.4187328 L167.962133,51.3250689 L157.918133,51.3250689 L157.918133,43.1267218 L128.846333,43.1267218 L128.846333,50.8980716 L118.802333,50.8980716 L118.802333,41.4187328 Z M148.320533,44.2369146 L148.320533,49.1046832 L170.584733,57.1322314 L170.584733,61.8292011 L155.239733,61.8292011 L143.354333,57.3884298 L131.859533,61.8292011 L116.068133,61.8292011 L116.068133,57.1322314 L138.276533,49.1046832 L138.276533,44.2369146 L148.320533,44.2369146 Z M148.376333,1.11019284 L148.376333,3.15977961 L170.863733,3.15977961 L170.863733,11.3581267 L160.819733,11.3581267 L160.819733,8.7107438 L125.888933,8.7107438 L125.888933,11.3581267 L115.900733,11.3581267 L115.900733,3.15977961 L138.388133,3.15977961 L138.388133,1.11019284 L148.376333,1.11019284 Z M131.078333,37.661157 L155.518733,37.661157 L149.882933,33.7327824 L136.714133,33.7327824 L131.078333,37.661157 Z M136.769933,28.1818182 L149.994533,28.1818182 L149.994533,26.3030303 L136.769933,26.3030303 L136.769933,28.1818182 Z M136.769933,20.7520661 L149.994533,20.7520661 L149.994533,18.8732782 L136.769933,18.8732782 L136.769933,20.7520661 Z M196.478,2.98898072 L196.478,0.683195592 L206.522,0.683195592 L206.522,2.98898072 L228.284,2.98898072 L228.284,9.47933884 L206.522,9.47933884 L206.522,11.6143251 L226.61,11.6143251 L226.61,28.0110193 L206.522,28.0110193 L206.522,30.0606061 L226.889,30.0606061 L226.889,39.1983471 L228.7862,39.1983471 L228.7862,45.6033058 L226.889,45.6033058 L226.889,54.6556474 L206.522,54.6556474 L206.522,54.8264463 L205.1828,62 L194.804,62 L196.1432,54.6556474 L175.553,54.6556474 L175.553,47.8236915 L196.478,47.8236915 L196.478,45.6033058 L173.6558,45.6033058 L173.6558,39.1983471 L196.478,39.1983471 L196.478,36.892562 L175.553,36.892562 L175.553,30.0606061 L196.478,30.0606061 L196.478,28.0110193 L175.9436,28.0110193 L175.9436,11.6143251 L196.478,11.6143251 L196.478,9.47933884 L174.2696,9.47933884 L174.2696,2.98898072 L196.478,2.98898072 Z M196.478,21.5206612 L196.478,18.0192837 L185.9318,18.0192837 L185.9318,21.5206612 L196.478,21.5206612 Z M206.522,18.0192837 L206.522,21.5206612 L216.6218,21.5206612 L216.6218,18.0192837 L206.522,18.0192837 Z M206.522,36.892562 L206.522,39.1983471 L216.845,39.1983471 L216.845,36.892562 L206.522,36.892562 Z M216.845,47.8236915 L216.845,45.6033058 L206.522,45.6033058 L206.522,47.8236915 L216.845,47.8236915 Z M314.3338,24.0826446 L318.6304,53.9724518 L308.6422,53.9724518 L304.2898,24.0826446 L274.3252,24.0826446 L273.6556,53.9724518 L263.6116,53.9724518 L265.0624,1.62258953 L317.347,1.62258953 L317.347,24.0826446 L314.3338,24.0826446 Z M274.7716,8.45454545 L274.6042,16.3966942 L307.3588,16.3966942 L307.3588,8.45454545 L274.7716,8.45454545 Z M306.4102,54.1432507 L306.4102,61.8292011 L275.8318,55.0826446 L275.8318,47.3966942 L306.4102,54.1432507 Z M304.2898,37.9173554 L304.2898,45.6033058 L277.9522,38.9421488 L277.9522,31.2561983 L304.2898,37.9173554 Z M331.187467,11.8705234 L323.654467,11.8705234 L323.654467,4.184573 L333.810067,4.184573 L335.037667,0.683195592 L345.081667,0.683195592 L343.909867,4.184573 L375.381067,4.184573 L375.381067,11.8705234 L341.287267,11.8705234 L336.153667,27.0716253 L337.939267,27.0716253 L337.939267,61.7438017 L327.951067,61.7438017 L327.951067,36.892562 L322.538467,36.892562 L331.187467,11.8705234 Z M352.112467,28.0110193 L352.112467,15.5426997 L362.100667,15.5426997 L362.100667,28.0110193 L373.986067,28.0110193 L373.986067,35.6969697 L362.100667,35.6969697 L362.100667,53.3746556 L374.934667,53.3746556 L374.934667,61.0606061 L339.390067,61.0606061 L339.390067,53.3746556 L352.112467,53.3746556 L352.112467,35.6969697 L340.338667,35.6969697 L340.338667,28.0110193 L352.112467,28.0110193 Z" id="path-1"></path>
        <polygon id="path-2" points="554.395733 25.2782369 559.696733 11.785124 553.502933 11.785124 553.502933 4.09917355 575.432333 4.09917355 575.432333 0.85399449 585.476333 0.85399449 585.476333 4.09917355 607.405733 4.09917355 607.405733 11.785124 570.131333 11.785124 567.731933 17.5922865 593.567333 17.5922865 592.339733 13.6639118 602.718533 13.6639118 606.736133 25.2782369"></polygon>
        <polygon id="path-3" points="411.429933 0.683195592 421.473933 0.683195592 421.473933 5.97796143 423.036333 5.97796143 422.478333 1.19559229 431.350533 1.19559229 431.908533 5.97796143 434.531133 5.97796143 434.531133 13.6639118 421.473933 13.6639118 421.473933 52.862259 419.688333 61.7438017 409.644333 61.7438017 411.429933 53.0330579 411.429933 13.6639118 398.316933 13.6639118 398.316933 5.97796143 411.429933 5.97796143"></polygon>
        <polygon id="path-4" points="396.531333 35.4407713 392.904333 35.4407713 392.904333 53.1184573 396.587133 53.0330579 396.587133 60.7190083 379.177533 61.231405 379.177533 53.5454545 382.860333 53.4600551 382.860333 35.4407713 379.233333 35.4407713 379.233333 27.7548209 382.860333 27.7548209 382.860333 9.82093664 379.177533 9.82093664 379.177533 2.13498623 396.587133 2.13498623 396.587133 9.82093664 392.904333 9.82093664 392.904333 27.7548209 396.531333 27.7548209"></polygon>
        <polygon id="path-5" points="434.419533 60.9752066 425.491533 60.9752066 423.705933 37.3195592 432.633933 37.3195592"></polygon>
        <polygon id="path-6" points="400.214133 37.3195592 409.142133 37.3195592 407.356533 60.9752066 398.428533 60.9752066"></polygon>
        <polygon id="path-7" points="432.633933 33.7327824 423.705933 33.7327824 425.268333 17.3360882 434.196333 17.3360882"></polygon>
        <polygon id="path-8" points="398.651733 17.3360882 407.579733 17.3360882 409.142133 33.7327824 400.214133 33.7327824"></polygon>
    </defs>
    <g id="组件" stroke="none" stroke-width="1" fill="none" fill-rule="evenodd">
        <g id="标题" fill-rule="nonzero">
            <g>
                <g id="全球赛事尽在球会体育">
                    <use fill="#000000" xlink:href="#path-1"></use>
                    <use fill="#1B1F2C" xlink:href="#path-1"></use>
                </g>
                <path d="M555.679133,27.8402204 L605.229533,27.8402204 L605.229533,56.1928375 L604.336733,61.9146006 L594.125333,61.9146006 L594.906533,56.9614325 L565.667333,56.9614325 L565.667333,61.9146006 L555.679133,61.9146006 L555.679133,27.8402204 Z M565.667333,49.3608815 L595.241333,49.3608815 L595.241333,46.2865014 L565.667333,46.2865014 L565.667333,49.3608815 Z M595.241333,35.5261708 L565.667333,35.5261708 L565.667333,38.600551 L595.241333,38.600551 L595.241333,35.5261708 Z" id="形状结合" fill="#3683FF"></path>
                <g id="路径">
                    <use fill="#000000" xlink:href="#path-2"></use>
                    <use fill="#3683FF" xlink:href="#path-2"></use>
                </g>
                <polygon id="路径" fill="#3683FF" points="538.490667 49.2754821 538.490667 56.9614325 535.142667 56.9614325 535.142667 61.6584022 525.154467 61.6584022 525.154467 56.9614325 521.806467 56.9614325 521.806467 49.2754821 525.154467 49.2754821 525.154467 18.0192837 523.480467 18.0192837 519.518667 61.6584022 510.144267 61.6584022 514.161867 18.0192837 510.813867 18.0192837 510.813867 10.4187328 525.154467 10.4187328 525.154467 0.683195592 535.142667 0.683195592 535.142667 10.4187328 550.097067 10.4187328 550.097067 18.0192837 546.191067 18.0192837 550.152867 61.6584022 540.778467 61.6584022 536.816667 18.0192837 535.142667 18.0192837 535.142667 49.2754821"></polygon>
                <polygon id="路径" fill="#3683FF" points="510.534867 0.683195592 507.019467 16.9944904 508.414467 16.9944904 508.414467 61.6584022 498.537867 61.6584022 498.537867 25.8760331 494.910867 25.8760331 500.379267 0.683195592"></polygon>
                <polygon id="路径" fill="#3683FF" points="438.774 61.9146006 446.586 36.3801653 438.0486 36.3801653 438.0486 28.6942149 491.1702 28.6942149 491.1702 36.3801653 457.8576 36.3801653 452.6124 54.2286501 477.2202 54.2286501 474.2628 41.7603306 485.0322 41.7603306 489.8868 61.9146006"></polygon>
                <path d="M480.4566,18.446281 L480.4566,22.2892562 L449.3202,22.2892562 L449.3202,18.1900826 L446.7534,19.7272727 L437.658,19.7272727 L437.658,14.3471074 L458.7504,-1.42108547e-14 L470.6358,-1.42108547e-14 L491.7282,14.3471074 L491.7282,19.7272727 L482.6886,19.7272727 L480.4566,18.446281 Z M455.3466,14.6033058 L474.0396,14.6033058 L464.721,9.0523416 L455.3466,14.6033058 Z" id="形状结合" fill="#3683FF"></path>
                <g id="路径">
                    <use fill="#000000" xlink:href="#path-3"></use>
                    <use fill="#3683FF" xlink:href="#path-3"></use>
                </g>
                <g id="路径">
                    <use fill="#000000" xlink:href="#path-4"></use>
                    <use fill="#3683FF" xlink:href="#path-4"></use>
                </g>
                <g id="路径">
                    <use fill="#000000" xlink:href="#path-5"></use>
                    <use fill="#3683FF" xlink:href="#path-5"></use>
                </g>
                <g id="路径">
                    <use fill="#000000" xlink:href="#path-6"></use>
                    <use fill="#3683FF" xlink:href="#path-6"></use>
                </g>
                <g id="路径">
                    <use fill="#000000" xlink:href="#path-7"></use>
                    <use fill="#3683FF" xlink:href="#path-7"></use>
                </g>
                <g id="路径">
                    <use fill="#000000" xlink:href="#path-8"></use>
                    <use fill="#3683FF" xlink:href="#path-8"></use>
                </g>
            </g>
        </g>
    </g>
</svg>