<?xml version="1.0" encoding="UTF-8"?>
<svg width="67px" height="56px" viewBox="0 0 67 56" version="1.1" xmlns="http://www.w3.org/2000/svg" xmlns:xlink="http://www.w3.org/1999/xlink">
    <!-- Generator: Sketch 55 (78076) - https://sketchapp.com -->
    <title>黄冠</title>
    <desc>Created with Sketch.</desc>
    <defs>
        <linearGradient x1="50%" y1="0%" x2="50%" y2="100%" id="linearGradient-1">
            <stop stop-color="#F9CD25" offset="0%"></stop>
            <stop stop-color="#F19F10" offset="100%"></stop>
        </linearGradient>
    </defs>
    <g id="web端" stroke="none" stroke-width="1" fill="none" fill-rule="evenodd">
        <g id="03超级直播间" transform="translate(-1526.000000, -485.000000)" fill-rule="nonzero">
            <g id="黄冠" transform="translate(1560.000000, 508.000000) rotate(-334.000000) translate(-1560.000000, -508.000000) translate(1527.000000, 483.000000)">
                <g id="编组-6">
                    <g id="编组">
                        <path d="M33,0.633964316 C33.0853664,0.633964316 27.1077098,7.09333702 15.0670302,20.0120824 C5.35650228,17.3927923 0.501238299,16.0831473 0.501238299,16.0831473 L8.18398567,39.8984341 C12.8542966,38.5676012 17.1346835,37.6470243 21.0251463,37.1367034 C24.9156091,36.6263825 28.907227,36.3738936 33,36.3792367 C32.9146336,12.5490551 32.9146336,0.633964316 33,0.633964316 Z" id="路径" fill="#FFEFA5"></path>
                        <path d="M33,36.3792367 L33.0008808,0.633964316 C33.0008808,0.633964316 38.8333854,6.991638 50.4983945,19.7069854 C60.3281715,17.2910933 65.24306,16.0831473 65.24306,16.0831473 L57.8532731,39.8984341 C52.8449305,38.4745878 48.4838575,37.5776397 44.7700542,37.20759 C41.0562508,36.8375402 37.1328994,36.5614224 33,36.3792367 Z" id="路径" fill="#FEDC40"></path>
                    </g>
                </g>
                <g id="编组-6">
                    <g id="编组">
                        <path d="M33,0.125730699 C33.0853664,0.125730699 26.9654282,8.87277138 14.6401856,26.3668527 C5.21422072,19.5110491 0.501238299,16.0831473 0.501238299,16.0831473 L8.18398567,49.5758535 C12.8542966,48.2450206 17.1346835,47.3244436 21.0251463,46.8141228 C24.9156091,46.3038019 28.907227,46.051313 33,46.0566561 L33,0.125730699 Z" id="路径" fill="#F7D97B"></path>
                        <path d="M33,46.0566561 L32.8719504,0.125730699 C32.8719504,0.125730699 38.2671353,8.95478821 49.0575052,26.6129032 C59.847875,19.5930659 65.24306,16.0831473 65.24306,16.0831473 L57.8532731,49.5758535 C52.8449305,48.1520071 48.4838575,47.2550591 44.7700542,46.8850093 C41.0562508,46.5149596 37.1328994,46.2388418 33,46.0566561 Z" id="路径" fill="url(#linearGradient-1)"></path>
                    </g>
                    <g id="编组-5" transform="translate(25.756098, 26.612903)">
                        <path d="M0,7.25790947 C0,11.2666173 3.24301643,14.516129 7.24367032,14.516129 C11.244479,14.516129 14.4878049,11.2666173 14.4878049,7.25790947 C14.4878049,3.24935663 11.244479,0 7.24367032,0 C3.24301643,0 0,3.24935663 0,7.25790947 Z" id="路径" fill="#ED462B"></path>
                        <polygon id="路径" fill="#FFC2B4" points="7.24390244 0 7.24390244 7.25806452 0 7.25806452"></polygon>
                    </g>
                </g>
            </g>
        </g>
    </g>
</svg>