<?xml version="1.0" encoding="UTF-8"?>
<svg width="36px" height="40px" viewBox="0 0 36 40" version="1.1" xmlns="http://www.w3.org/2000/svg" xmlns:xlink="http://www.w3.org/1999/xlink">
    <!-- Generator: Sketch 55 (78076) - https://sketchapp.com -->
    <title>icon/ios</title>
    <desc>Created with Sketch.</desc>
    <g id="web端" stroke="none" stroke-width="1" fill="none" fill-rule="evenodd">
        <g id="01首页" transform="translate(-568.000000, -665.000000)">
            <g id="btn-苹果下载" transform="translate(522.000000, 656.000000)">
                <g id="icon/ios" transform="translate(40.000000, 5.000000)">
                    <g id="编组">
                        <rect id="矩形" fill="#FFFFFF" opacity="0" x="0" y="0" width="48" height="48"></rect>
                        <path d="M35.3033971,25.12 C35.3633971,31.13 41.0133971,33.13 41.0733971,33.16 C41.0233971,33.3 40.1733971,36.01 38.0933971,38.82 C36.2933971,41.24 34.4433971,43.65 31.5033971,43.7 C28.6133971,43.75 27.6933971,42.12 24.3933971,42.12 C21.0933971,42.12 20.0633971,43.65 17.3333971,43.75 C14.5033971,43.85 12.3433971,41.13 10.5333971,38.72 C6.83339708,33.78 4.00339708,24.77 7.80339708,18.69 C9.69339708,15.67 13.0633971,13.75 16.7133971,13.7 C19.4933971,13.66 22.1233971,15.44 23.8233971,15.44 C25.5233971,15.44 28.7233971,13.3 32.0733971,13.61 C33.4733971,13.67 37.4233971,14.13 39.9533971,17.55 C39.7533971,17.67 35.2433971,20.09 35.3033971,25.12 L35.3033971,25.12 Z M23.4833971,13.16 C23.1633971,10.87 24.3733971,8.5 25.7733971,7.01 C27.3233971,5.33 29.9533971,4.08 32.1133971,4 C32.3933971,6.33 31.3733971,8.66 29.8733971,10.34 C28.3733971,12.02 25.9033971,13.33 23.4833971,13.16 L23.4833971,13.16 Z" id="icon_ios" fill="#FEFBFC" fill-rule="nonzero"></path>
                    </g>
                </g>
            </g>
        </g>
    </g>
</svg>