<?xml version="1.0" encoding="UTF-8"?>
<svg width="199px" height="198px" viewBox="0 0 199 198" version="1.1" xmlns="http://www.w3.org/2000/svg" xmlns:xlink="http://www.w3.org/1999/xlink">
    <!-- Generator: Sketch 55 (78076) - https://sketchapp.com -->
    <title>web_bg_circle03</title>
    <desc>Created with Sketch.</desc>
    <defs>
        <path d="M99.4019608,0.361638908 C153.980392,0.361638908 198.22549,44.4718117 198.22549,98.8838064 C198.22549,153.295801 153.980392,197.405974 99.4019608,197.405974 C44.8235294,197.405974 0.578431373,153.295801 0.578431373,98.8838064 C0.578431373,44.4718117 44.8235294,0.361638908 99.4019608,0.361638908 Z" id="path-1"></path>
    </defs>
    <g id="web端" stroke="none" stroke-width="1" fill="none" fill-rule="evenodd">
        <g id="03h5端_超级直播间" transform="translate(-551.000000, -1029.000000)">
            <g id="web_bg_circle03" transform="translate(551.000000, 1028.000000)">
                <g id="形状-843" transform="translate(0.009804, 0.938306)">
                    <mask id="mask-2" fill="white">
                        <use xlink:href="#path-1"></use>
                    </mask>
                    <use id="蒙版" fill="#F8FBFF" fill-rule="nonzero" xlink:href="#path-1"></use>
                    <path d="M115.705882,-34.1015717 L-29.3039216,110.466025 L-41.1764706,98.6199077 L103.823529,-45.9379154 L115.705882,-34.1015717 Z M129.490196,-20.3592931 L-15.5196078,124.208304 L-26.4117647,113.349363 L118.598039,-31.2182344 L129.490196,-20.3592931 Z M143.264706,-6.61701462 L-1.73529412,137.940809 L-11.6372549,128.069044 L133.362745,-16.4887794 L143.264706,-6.61701462 Z M157.04902,7.11548987 L12.0392157,151.683087 L3.12745098,142.798499 L148.137255,-1.76909844 L157.04902,7.11548987 Z M170.823529,20.8577684 L25.8235294,165.415592 L17.9019608,157.51818 L162.901961,12.9603566 L170.823529,20.8577684 Z M184.607843,34.5902729 L39.5980392,179.15787 L32.6666667,172.247635 L177.676471,27.6800375 L184.607843,34.5902729 Z M198.382353,48.3325514 L53.3823529,192.890375 L47.4411765,186.97709 L192.45098,42.4094925 L198.382353,48.3325514 Z M212.166667,62.0650559 L67.1568627,206.632653 L62.2058824,201.696771 L207.215686,57.1291735 L212.166667,62.0650559 Z M225.941176,75.8073344 L80.9411765,220.374932 L76.9803922,216.426226 L221.990196,71.8586285 L225.941176,75.8073344 Z M239.72549,89.5398389 L94.7156863,234.107436 L91.745098,231.145907 L236.754902,86.5783095 L239.72549,89.5398389 Z" fill="#E5EFFF" fill-rule="nonzero" mask="url(#mask-2)"></path>
                </g>
            </g>
        </g>
    </g>
</svg>