<?xml version="1.0" encoding="UTF-8"?>
<svg width="669px" height="62px" viewBox="0 0 669 62" version="1.1" xmlns="http://www.w3.org/2000/svg" xmlns:xlink="http://www.w3.org/1999/xlink">
    <!-- Generator: Sketch 55 (78076) - https://sketchapp.com -->
    <title>标题</title>
    <desc>Created with Sketch.</desc>
    <defs>
        <path d="M379.4058,1.03477051 L379.4058,8.79554937 L356.751,8.79554937 L356.751,12.5897079 L377.8992,12.5897079 L377.8992,43.1154381 L355.356,43.1154381 L349.3296,49.2378303 L379.4058,53.8942976 L379.4058,61.5688456 L342.6894,55.8776078 L336.6072,62 L325.6704,62 L325.6704,57.7746871 L329.6322,53.8942976 L325.5588,53.2044506 L325.5588,45.4436718 L336.384,47.1682893 L340.5132,43.1154381 L325.6146,43.1154381 L325.6146,12.5897079 L346.7628,12.5897079 L346.7628,8.79554937 L324.108,8.79554937 L324.108,1.03477051 L379.4058,1.03477051 Z M367.8552,35.3546592 L367.8552,31.7329624 L356.751,31.7329624 L356.751,35.3546592 L367.8552,35.3546592 Z M335.6586,23.9721836 L346.7628,23.9721836 L346.7628,20.3504868 L335.6586,20.3504868 L335.6586,23.9721836 Z M335.6586,35.3546592 L346.7628,35.3546592 L346.7628,31.7329624 L335.6586,31.7329624 L335.6586,35.3546592 Z M356.751,20.3504868 L356.751,23.9721836 L367.8552,23.9721836 L367.8552,20.3504868 L356.751,20.3504868 Z M411.716067,21.8164117 L421.536867,21.8164117 L425.331267,10.1752434 L394.920267,10.1752434 L392.576667,16.9012517 L382.644267,16.9012517 L388.559067,0.172461752 L398.435667,0.172461752 L397.654467,2.41446453 L436.100667,2.41446453 L436.100667,10.6063978 L429.739467,29.4909597 L382.979067,29.4909597 L382.979067,21.8164117 L402.397467,21.8164117 L400.277067,14.5730181 L409.651467,14.5730181 L411.716067,21.8164117 Z M411.716067,53.8080668 L421.536867,53.8080668 L425.331267,42.1668985 L394.920267,42.1668985 L392.576667,48.8929068 L382.644267,48.8929068 L388.559067,32.1641168 L398.435667,32.1641168 L397.654467,34.4061196 L436.100667,34.4061196 L436.100667,42.5980529 L429.739467,61.4826147 L382.979067,61.4826147 L382.979067,53.8080668 L402.397467,53.8080668 L400.277067,46.5646732 L409.651467,46.5646732 L411.716067,53.8080668 Z M493.855733,56.2225313 L493.241933,61.8275382 L482.751533,61.8275382 L483.644333,55.6189152 L474.046733,55.6189152 L474.046733,61.8275382 L464.058533,61.8275382 L464.058533,30.9568846 L493.855733,30.9568846 L493.855733,56.2225313 Z M494.078933,12.0723227 L494.078933,18.9707928 L483.979133,18.9707928 L483.979133,21.6439499 L495.083333,21.6439499 L495.083333,28.54242 L462.830933,28.54242 L462.830933,21.6439499 L473.935133,21.6439499 L473.935133,18.9707928 L463.835333,18.9707928 L463.835333,12.0723227 L473.935133,12.0723227 L473.935133,9.48539638 L463.500533,9.48539638 L463.500533,2.58692629 L473.935133,2.58692629 L473.935133,0.0862308762 L483.979133,0.0862308762 L483.979133,2.58692629 L494.413733,2.58692629 L494.413733,9.48539638 L483.979133,9.48539638 L483.979133,12.0723227 L494.078933,12.0723227 Z M445.979333,0 L455.465333,0 L455.465333,22.2475661 L461.435933,22.2475661 L461.435933,30.0083449 L455.465333,30.0083449 L455.465333,61.5688456 L445.979333,61.5688456 L445.979333,30.0083449 L439.897133,30.0083449 L439.897133,22.2475661 L445.979333,22.2475661 L445.979333,0 Z M445.086533,32.5090403 L444.249533,61.5688456 L439.897133,61.5688456 L440.622533,32.5090403 L445.086533,32.5090403 Z M460.710533,32.5090403 L461.435933,61.5688456 L457.083533,61.5688456 L456.358133,32.5090403 L460.710533,32.5090403 Z M440.622533,20.0055633 L439.897133,0 L444.249533,0 L445.086533,20.0055633 L440.622533,20.0055633 Z M456.358133,20.0055633 L457.083533,0 L461.435933,0 L460.710533,20.0055633 L456.358133,20.0055633 Z M483.867533,37.4242003 L474.046733,37.4242003 L474.046733,40.0973574 L483.867533,40.0973574 L483.867533,37.4242003 Z M474.046733,49.1515994 L483.867533,49.1515994 L483.867533,46.5646732 L474.046733,46.5646732 L474.046733,49.1515994 Z M541.4552,0.0862308762 L552.0572,0.0862308762 L545.696,17.418637 L552.8942,17.418637 L546.1982,35.8720445 L552.7268,35.8720445 L544.4684,61.5688456 L533.8664,61.5688456 L540.8972,39.5799722 L534.2012,39.5799722 L540.5066,22.2475661 L533.3084,22.2475661 L541.4552,0.0862308762 Z M497.8196,28.9735744 L510.7652,28.9735744 L510.7652,25.1794159 L520.6976,25.1794159 L520.6976,28.9735744 L533.6432,28.9735744 L533.6432,36.7343533 L520.6976,36.7343533 L520.6976,61.5688456 L510.7652,61.5688456 L510.7652,36.7343533 L497.8196,36.7343533 L497.8196,28.9735744 Z M497.8754,0.68984701 L533.5874,0.258692629 L533.5874,8.01947149 L497.8754,8.45062587 L497.8754,0.68984701 Z M500.6096,38.5452017 L509.426,38.5452017 L506.7476,61.5688456 L497.9312,61.5688456 L500.6096,38.5452017 Z M533.5316,61.5688456 L524.7152,61.5688456 L522.0368,38.5452017 L530.8532,38.5452017 L533.5316,61.5688456 Z M531.6902,23.4547983 L522.539,23.4547983 L523.7108,10.0890125 L532.862,10.0890125 L531.6902,23.4547983 Z M510.263,10.0890125 L519.4142,10.0890125 L520.586,23.4547983 L511.4348,23.4547983 L510.263,10.0890125 Z M498.6566,10.0890125 L507.8078,10.0890125 L508.9796,23.4547983 L499.8284,23.4547983 L498.6566,10.0890125 Z M591.788867,53.8080668 L592.458467,46.0472879 L561.768467,46.0472879 L565.004867,9.14047288 L556.467467,9.14047288 L556.467467,1.37969402 L610.035467,1.37969402 L610.035467,9.14047288 L574.993067,9.14047288 L574.379267,16.4700974 L605.069267,16.4700974 L601.777067,53.8080668 L610.258667,53.8080668 L610.258667,61.4826147 L556.244267,61.4826147 L556.244267,53.8080668 L591.788867,53.8080668 Z M573.709667,24.2308762 L572.482067,38.286509 L593.128067,38.286509 L594.355667,24.2308762 L573.709667,24.2308762 Z M641.731933,6.72600834 L645.972733,6.72600834 L646.419133,0.172461752 L656.630533,0.172461752 L656.184133,6.72600834 L668.794933,6.72600834 L668.794933,52.6870654 L667.678933,61.5688456 L657.188533,61.5688456 L658.750933,51.4798331 L658.750933,14.4867872 L655.681933,14.4867872 L652.557133,61.5688456 L642.345733,61.5688456 L645.470533,14.4867872 L641.731933,14.4867872 L641.731933,6.72600834 Z M640.894933,21.9888734 L640.894933,29.7496523 L627.391333,29.7496523 L625.047733,54.0667594 L630.237133,54.0667594 L629.455933,37.6828929 L639.388333,37.6828929 L640.783333,61.6550765 L613.664533,61.6550765 L617.347333,29.7496523 L613.441333,29.7496523 L613.441333,21.9888734 L640.894933,21.9888734 Z M640.113733,1.98331015 L640.113733,9.74408901 L614.278333,9.74408901 L614.278333,1.98331015 L640.113733,1.98331015 Z" id="path-1"></path>
    </defs>
    <g id="web端" stroke="none" stroke-width="1" fill="none" fill-rule="evenodd">
        <g id="03超级直播间" transform="translate(-339.000000, -331.000000)" fill-rule="nonzero">
            <g id="标题" transform="translate(339.108000, 331.000000)">
                <g id="更多精彩互动">
                    <use fill="#000000" xlink:href="#path-1"></use>
                    <use fill="#1B1F2C" xlink:href="#path-1"></use>
                </g>
                <path d="M24.3846,13.4895397 L17.4654,13.4895397 L17.4654,21.790795 L24.9426,21.790795 L24.9426,29.4867503 L19.1394,29.4867503 L19.1394,37.5285914 L24.9426,37.5285914 L24.9426,45.3110181 L19.1394,45.3110181 L19.1394,54.2175732 L55.521,54.2175732 L55.521,62 L11.2158,62 L7.4214,56.8981869 L7.3098,62 L2.84217094e-14,62 L0.837,33.2914923 L8.1468,33.2914923 L7.7562,46.6080893 L9.9324,49.4616457 L9.9324,29.4867503 L2.84217094e-14,29.4867503 L2.84217094e-14,21.790795 L7.4772,21.790795 L7.4772,13.4895397 L0.558,13.4895397 L0.558,5.70711297 L7.4772,5.70711297 L7.4772,0.259414226 L17.4654,0.259414226 L17.4654,5.70711297 L24.3846,5.70711297 L24.3846,13.4895397 Z M26.8398,28.9679219 L54.4608,28.9679219 L54.4608,52.055788 L26.8398,52.055788 L26.8398,28.9679219 Z M26.8398,2.24825662 L54.4608,2.24825662 L54.4608,19.6290098 L53.6796,26.8926081 L43.524,26.8926081 L44.4168,19.6290098 L44.4168,10.0306834 L39.339,10.0306834 L36.828,26.8926081 L26.8956,26.8926081 L29.4066,10.0306834 L26.8398,10.0306834 L26.8398,2.24825662 Z M44.7516,36.6638773 L36.549,36.6638773 L36.549,44.2733612 L44.7516,44.2733612 L44.7516,36.6638773 Z M111.769467,0.259414226 L111.769467,8.82008368 L105.798867,21.3584379 L113.108667,21.3584379 L113.108667,30.6973501 L107.138067,46.6945607 L113.220267,55.5146444 L113.220267,61.7405858 L105.185067,61.7405858 L102.785667,58.195258 L101.502267,61.7405858 L91.1234667,61.7405858 L96.1454667,48.3375174 L91.3466667,41.1603905 L89.7842667,61.7405858 L80.0750667,61.7405858 L84.2042667,7.9553696 L80.4656667,7.9553696 L80.4656667,0.259414226 L111.769467,0.259414226 Z M71.0912667,11.5006974 L79.0148667,11.5006974 L79.0148667,17.8131102 L70.9238667,41.5927476 L78.5684667,41.5927476 L78.5684667,49.4616457 L59.7080667,49.4616457 L59.7080667,42.9762901 L65.8460667,26.027894 L58.0898667,26.027894 L58.0898667,17.8131102 L64.0046667,0 L73.0442667,0 L67.0736667,18.2454672 L68.6360667,18.2454672 L71.0912667,11.5006974 Z M78.5684667,53.1799163 L78.5684667,60.9623431 L58.1456667,61.7405858 L58.1456667,53.958159 L78.5684667,53.1799163 Z M97.8194667,33.1185495 L100.442067,36.9232915 L103.343667,29.1408647 L95.6990667,29.1408647 L95.6990667,19.8019526 L101.390667,7.9553696 L93.9134667,7.9553696 L91.9604667,33.1185495 L97.8194667,33.1185495 Z M171.142733,54.1311018 L171.142733,61.6541144 L115.844933,61.6541144 L115.844933,54.1311018 L119.974133,54.1311018 L119.974133,13.5760112 L138.499733,13.5760112 L138.499733,10.2036262 L115.844933,10.2036262 L115.844933,2.68061367 L138.499733,2.68061367 L138.499733,0.0864714086 L148.487933,0.0864714086 L148.487933,2.68061367 L171.142733,2.68061367 L171.142733,10.2036262 L148.487933,10.2036262 L148.487933,13.5760112 L166.957733,13.5760112 L166.957733,54.1311018 L171.142733,54.1311018 Z M130.018133,54.1311018 L156.969533,54.1311018 L156.969533,51.3640167 L130.018133,51.3640167 L130.018133,54.1311018 Z M156.969533,21.0125523 L130.018133,21.0125523 L130.018133,23.7796374 L156.969533,23.7796374 L156.969533,21.0125523 Z M130.018133,43.8410042 L156.969533,43.8410042 L156.969533,41.2468619 L130.018133,41.2468619 L130.018133,43.8410042 Z M130.018133,33.7238494 L156.969533,33.7238494 L156.969533,31.2161785 L130.018133,31.2161785 L130.018133,33.7238494 Z M228.7304,35.1938633 L228.7304,61.3082287 L194.1344,61.3082287 L194.1344,35.1938633 L228.7304,35.1938633 Z M229.121,17.2942817 L229.121,25.0767085 L226.4426,25.0767085 L229.121,33.4644351 L220.193,33.4644351 L217.5146,25.0767085 L216.1754,25.0767085 L216.1754,33.4644351 L206.6894,33.4644351 L206.6894,25.0767085 L205.2944,25.0767085 L202.6718,33.4644351 L193.7438,33.4644351 L196.3664,25.0767085 L193.7438,25.0767085 L193.7438,17.2942817 L206.6894,17.2942817 L206.6894,8.21478382 L194.3018,8.38772664 L194.3018,0.691771269 L228.563,0.172942817 L228.563,7.9553696 L216.1754,8.12831241 L216.1754,17.2942817 L229.121,17.2942817 Z M192.572,33.8103208 L192.572,41.5927476 L187.9964,42.2845188 L187.9964,52.9205021 L186.2666,61.8270572 L176.1668,61.8270572 L177.9524,53.0069735 L177.9524,43.8410042 L173.6558,44.446304 L173.6558,36.7503487 L177.9524,36.1450488 L177.9524,15.8242678 L173.6558,15.8242678 L173.6558,8.12831241 L177.9524,8.12831241 L177.9524,0 L187.9964,0 L187.9964,8.12831241 L192.572,8.12831241 L192.572,15.8242678 L187.9964,15.8242678 L187.9964,34.5885635 L192.572,33.8103208 Z M194.4692,9.59832636 L203.3972,9.59832636 L204.4574,16.2566248 L195.5852,16.2566248 L194.4692,9.59832636 Z M227.2796,16.2566248 L218.3516,16.2566248 L219.4676,9.59832636 L228.3398,9.59832636 L227.2796,16.2566248 Z M220.4162,42.1980474 L215.8964,42.1980474 L215.8964,44.7921897 L220.4162,44.7921897 L220.4162,42.1980474 Z M220.4162,54.3040446 L220.4162,51.7099024 L215.8964,51.7099024 L215.8964,54.3040446 L220.4162,54.3040446 Z M202.5044,44.7921897 L206.9684,44.7921897 L206.9684,42.1980474 L202.5044,42.1980474 L202.5044,44.7921897 Z M202.5044,54.3040446 L206.9684,54.3040446 L206.9684,51.7099024 L202.5044,51.7099024 L202.5044,54.3040446 Z M246.309467,14.2677824 L272.312267,14.2677824 L272.312267,58.8870293 L246.309467,58.8870293 L246.309467,14.2677824 Z M246.644267,1.29707113 L285.369467,1.29707113 L285.369467,54.390516 L284.699867,61.9135286 L274.488467,61.9135286 L275.381267,54.0446304 L275.381267,9.07949791 L246.644267,9.07949791 L246.644267,1.29707113 Z M243.352067,15.0460251 L243.352067,61.7405858 L233.363867,61.7405858 L233.363867,15.0460251 L243.352067,15.0460251 Z M243.073067,0.259414226 L244.189067,11.5006974 L234.200867,11.5006974 L233.084867,0.259414226 L243.073067,0.259414226 Z M255.739667,22.0502092 L255.739667,32.6861925 L262.882067,32.6861925 L262.882067,22.0502092 L255.739667,22.0502092 Z M262.882067,51.1046025 L262.882067,40.4686192 L255.739667,40.4686192 L255.739667,51.1046025 L262.882067,51.1046025 Z" id="超级直播间" fill="#3683FF"></path>
            </g>
        </g>
    </g>
</svg>