<?xml version="1.0" encoding="UTF-8"?>
<svg width="609px" height="62px" viewBox="0 0 609 62" version="1.1" xmlns="http://www.w3.org/2000/svg" xmlns:xlink="http://www.w3.org/1999/xlink">
    <!-- Generator: Sketch 55 (78076) - https://sketchapp.com -->
    <title>编组</title>
    <desc>Created with Sketch.</desc>
    <g id="web端" stroke="none" stroke-width="1" fill="none" fill-rule="evenodd">
        <g id="04资讯社区" transform="translate(-1034.000000, -332.000000)" fill-rule="nonzero">
            <g id="编组" transform="translate(1034.540000, 332.000000)">
                <path d="M313.7758,0.603616134 L312.883,5.17385257 L318.463,5.17385257 L318.463,17.5910987 L314.3896,17.5910987 L314.3896,28.8873435 L267.2944,28.8873435 L267.2944,17.5910987 L263.221,17.5910987 L263.221,5.17385257 L268.801,5.17385257 L267.9082,0.603616134 L277.9522,0.603616134 L278.845,5.17385257 L285.82,5.17385257 L285.82,0.258692629 L295.864,0.258692629 L295.864,5.17385257 L302.839,5.17385257 L303.7318,0.603616134 L313.7758,0.603616134 Z M273.265,13.8831711 L308.419,13.8831711 L308.419,11.6411683 L273.265,11.6411683 L273.265,13.8831711 Z M304.3456,22.5924896 L304.3456,20.178025 L277.3384,20.178025 L277.3384,22.5924896 L304.3456,22.5924896 Z" id="形状结合" fill="#1B1F2C"></path>
                <polygon id="路径" fill="#1B1F2C" points="316.8448 30.5257302 316.8448 37.5104312 295.864 37.8553547 295.864 40.7009736 316.3984 40.7009736 316.3984 47.6856745 295.864 47.6856745 295.864 50.2726008 318.4072 50.2726008 318.4072 57.2573018 295.6408 57.2573018 294.9154 62 284.5924 62 285.4294 57.2573018 263.2768 57.2573018 263.2768 50.2726008 285.82 50.2726008 285.82 47.6856745 265.5646 47.6856745 265.5646 40.7009736 285.82 40.7009736 285.82 38.0278164 265.1182 38.286509 265.1182 31.3018081"></polygon>
                <path d="M339.501667,0.258692629 L376.329667,0.258692629 L376.329667,17.9360223 L349.489867,17.9360223 L349.099267,61.6550765 L338.943667,61.6550765 L339.501667,0.258692629 Z M366.508867,10.6063978 L366.508867,7.58831711 L349.545667,7.58831711 L349.545667,10.6063978 L366.508867,10.6063978 Z" id="形状结合" fill="#1B1F2C"></path>
                <polygon id="路径" fill="#1B1F2C" points="338.218267 32.9401947 338.218267 40.7009736 334.814467 41.3908206 334.814467 52.6008345 333.028867 61.5688456 322.984867 61.5688456 324.770467 52.8595271 324.770467 43.4603616 321.087667 44.1502086 321.087667 36.3894298 324.770467 35.6995828 324.770467 16.1251739 321.087667 16.1251739 321.087667 8.36439499 324.770467 8.36439499 324.770467 0 334.814467 0 334.814467 8.36439499 338.218267 8.36439499 338.218267 16.1251739 334.814467 16.1251739 334.814467 33.6300417"></polygon>
                <polygon id="路径" fill="#1B1F2C" points="365.448667 32.767733 364.946467 29.3184979 374.320867 29.3184979 376.162267 39.8386648 351.498667 39.8386648 353.786467 26.8178025 351.275467 26.8178025 351.275467 19.7468707 376.162267 19.7468707 376.162267 26.8178025 363.105067 26.8178025 362.379667 32.767733"></polygon>
                <polygon id="路径" fill="#1B1F2C" points="358.696867 41.0458971 368.740867 41.0458971 368.740867 44.0639777 375.548467 44.0639777 375.548467 51.1349096 368.740867 51.1349096 368.740867 54.5841446 376.162267 54.5841446 376.162267 61.5688456 351.275467 61.5688456 351.275467 54.5841446 358.696867 54.5841446 358.696867 51.1349096 351.889267 51.1349096 351.889267 44.0639777 358.696867 44.0639777"></polygon>
                <polygon id="路径" fill="#1B1F2C" points="422.478333 49.1515994 422.478333 56.9123783 419.130333 56.9123783 419.130333 61.6550765 409.142133 61.6550765 409.142133 56.9123783 405.794133 56.9123783 405.794133 49.1515994 409.142133 49.1515994 409.142133 17.5910987 407.468133 17.5910987 403.506333 61.6550765 394.131933 61.6550765 398.149533 17.5910987 394.801533 17.5910987 394.801533 9.91655076 409.142133 9.91655076 409.142133 0.0862308762 419.130333 0.0862308762 419.130333 9.91655076 434.084733 9.91655076 434.084733 17.5910987 430.178733 17.5910987 434.140533 61.6550765 424.766133 61.6550765 420.804333 17.5910987 419.130333 17.5910987 419.130333 49.1515994"></polygon>
                <polygon id="路径" fill="#1B1F2C" points="394.522533 0.0862308762 391.007133 16.5563282 392.402133 16.5563282 392.402133 61.6550765 382.525533 61.6550765 382.525533 25.5243394 378.898533 25.5243394 384.366933 0.0862308762"></polygon>
                <polygon id="路径" fill="#1B1F2C" points="492.1188 22.1613352 492.1188 29.922114 472.7562 29.922114 469.0176 53.8942976 481.182 53.8942976 479.0058 37.596662 489.1056 37.596662 492.0072 61.6550765 457.2996 61.6550765 462.4332 29.922114 456.909 29.922114 456.909 22.1613352"></polygon>
                <polygon id="路径" fill="#1B1F2C" points="455.1234 59.7579972 436.7652 61.0514604 436.7652 53.2906815 441.1176 53.0319889 441.1176 20.178025 436.7652 20.178025 436.7652 12.4172462 441.1176 12.4172462 441.1176 0 450.6036 0 450.6036 12.4172462 455.1234 12.4172462 455.1234 20.178025 450.6036 20.178025 450.6036 52.4283727 455.1234 52.0834492"></polygon>
                <polygon id="路径" fill="#1B1F2C" points="491.3376 1.55215577 491.3376 9.31293463 457.6902 9.31293463 457.6902 1.55215577"></polygon>
                <polygon id="路径" fill="#1B1F2C" points="522.922467 6.81223922 527.163267 6.81223922 527.609667 0.258692629 537.821067 0.258692629 537.374667 6.81223922 549.985467 6.81223922 549.985467 52.7732962 548.869467 61.6550765 538.379067 61.6550765 539.941467 51.566064 539.941467 14.5730181 536.872467 14.5730181 533.747667 61.6550765 523.536267 61.6550765 526.661067 14.5730181 522.922467 14.5730181"></polygon>
                <polygon id="路径" fill="#1B1F2C" points="522.085467 22.0751043 522.085467 29.8358832 508.581867 29.8358832 506.238267 54.1529903 511.427667 54.1529903 510.646467 37.7691238 520.578867 37.7691238 521.973867 61.7413074 494.855067 61.7413074 498.537867 29.8358832 494.631867 29.8358832 494.631867 22.0751043"></polygon>
                <polygon id="路径" fill="#1B1F2C" points="521.304267 2.06954103 521.304267 9.83031989 495.468867 9.83031989 495.468867 2.06954103"></polygon>
                <polygon id="路径" fill="#1B1F2C" points="562.598333 13.7969402 552.944933 13.7969402 552.944933 6.03616134 565.778933 6.03616134 568.234133 0.0862308762 579.115133 0.0862308762 576.659933 6.03616134 607.517333 6.03616134 607.517333 13.7969402 598.477733 13.7969402 606.736133 33.7162726 595.855133 33.7162726 587.596733 13.7969402 573.479333 13.7969402 565.332533 33.7162726 554.451533 33.7162726"></polygon>
                <polygon id="路径" fill="#1B1F2C" points="576.492533 37.1655076 576.492533 52.945758 594.962333 52.945758 594.962333 61.8275382 566.504333 61.8275382 566.504333 37.1655076"></polygon>
                <polygon id="路径" fill="#1B1F2C" points="605.062133 38.5452017 607.238333 61.8275382 597.473333 61.8275382 595.297133 38.5452017"></polygon>
                <polygon id="路径" fill="#1B1F2C" points="564.662933 38.5452017 562.486733 61.8275382 552.777533 61.8275382 554.953733 38.5452017"></polygon>
                <polygon id="路径" fill="#1B1F2C" points="583.411733 19.9193324 585.420533 33.7162726 575.376533 33.7162726 573.367733 19.9193324"></polygon>
                <polygon id="路径" fill="#1B1F2C" points="590.107733 37.0792768 591.725933 50.3588317 581.681933 50.3588317 580.063733 37.0792768"></polygon>
                <polygon id="路径" fill="#3683FF" points="32.1966 41.2183588 32.1966 46.9095967 55.0188 56.394993 55.0188 61.6550765 39.6738 61.6550765 28.179 56.8261474 15.624 61.6550765 2.27373675e-13 61.6550765 2.27373675e-13 56.2225313 22.1526 47.2545202 22.1526 41.2183588"></polygon>
                <polygon id="路径" fill="#3683FF" points="1.8414 32.5952712 52.7868 32.5952712 52.7868 50.2726008 42.7428 50.2726008 42.7428 39.4075104 11.8854 39.4075104 11.8854 50.2726008 1.8414 50.2726008"></polygon>
                <polygon id="路径" fill="#3683FF" points="39.2274 11.4687065 39.2274 16.1251739 54.6282 26.3866481 54.6282 30.5257302 41.6826 30.5257302 34.2054 25.5243394 26.7282 30.5257302 13.8384 30.5257302 13.8384 26.3866481 29.1834 16.1251739 29.1834 11.4687065"></polygon>
                <polygon id="路径" fill="#3683FF" points="13.7826 16.8150209 15.9588 0.344923505 26.0028 0.344923505 25.7238 2.15577191 54.5724 2.15577191 52.6752 16.4700974 42.6312 16.4700974 43.6356 8.96801113 24.831 8.96801113 23.7708 16.8150209"></polygon>
                <polygon id="路径" fill="#3683FF" points="0.3906 30.5257302 2.5668 14.659249 12.6108 14.659249 10.4346 30.5257302"></polygon>
                <polygon id="路径" fill="#3683FF" points="10.8252 0.431154381 12.6666 11.9860918 2.6226 11.9860918 0.7812 0.431154381"></polygon>
                <polygon id="路径" fill="#3683FF" points="98.6006667 26.7315716 98.6006667 34.4061196 91.4582667 34.4061196 91.4582667 61.6550765 81.4700667 61.6550765 81.4700667 34.4061196 74.3276667 34.4061196 74.3276667 26.7315716 81.4700667 26.7315716 81.4700667 8.7093185 74.3276667 8.7093185 74.3276667 0.948539638 110.709267 0.948539638 110.709267 53.8942976 112.997067 53.8942976 112.997067 61.6550765 100.665267 61.6550765 100.665267 8.7093185 91.4582667 8.7093185 91.4582667 26.7315716"></polygon>
                <polygon id="路径" fill="#3683FF" points="70.7006667 53.9805285 73.6022667 53.9805285 73.6022667 61.6550765 60.6566667 61.6550765 60.6566667 24.3171071 57.4202667 24.3171071 57.4202667 16.5563282 70.7006667 16.5563282"></polygon>
                <polygon id="路径" fill="#3683FF" points="59.2058667 0.172461752 69.2498667 0.172461752 70.7006667 13.0208623 60.6566667 13.0208623"></polygon>
                <polygon id="路径" fill="#3683FF" points="148.934333 0.172461752 158.978333 0.172461752 158.978333 15.6940195 169.915133 15.6940195 169.915133 23.4547983 158.978333 23.4547983 158.978333 53.7218359 170.752133 53.7218359 170.752133 61.3963839 137.160533 61.3963839 137.160533 53.7218359 148.934333 53.7218359 148.934333 23.4547983 137.997533 23.4547983 137.997533 15.6940195 148.934333 15.6940195"></polygon>
                <polygon id="路径" fill="#3683FF" points="135.877133 6.03616134 135.877133 14.7454798 131.971133 26.3004172 136.100333 26.3004172 138.388133 45.8748261 132.361733 45.8748261 130.631933 30.3532684 130.464533 30.8706537 130.464533 61.8275382 120.699533 61.8275382 120.699533 41.7357441 115.844933 41.7357441 125.330933 13.7969402 115.398533 13.7969402 115.398533 6.03616134 120.587933 6.03616134 120.587933 0.172461752 130.352933 0.172461752 130.352933 6.03616134"></polygon>
                <polygon id="路径" fill="#3683FF" points="227.9492 53.8080668 227.9492 61.5688456 175.0508 61.5688456 175.0508 1.29346314 227.9492 1.29346314 227.9492 9.054242 185.0948 9.054242 185.0948 53.8080668"></polygon>
                <polygon id="路径" fill="#3683FF" points="199.547 11.7273992 205.7966 21.9026426 212.0462 11.7273992 223.82 11.7273992 211.5998 31.3880389 223.82 51.1349096 212.2694 51.1349096 205.7966 40.7872045 199.3238 51.1349096 187.7732 51.1349096 199.9376 31.3880389 187.7732 11.7273992"></polygon>
            </g>
        </g>
    </g>
</svg>