<?xml version="1.0" encoding="UTF-8"?>
<svg width="40px" height="43px" viewBox="0 0 40 43" version="1.1" xmlns="http://www.w3.org/2000/svg" xmlns:xlink="http://www.w3.org/1999/xlink">
    <!-- Generator: Sketch 55 (78076) - https://sketchapp.com -->
    <title>icon/android</title>
    <desc>Created with Sketch.</desc>
    <g id="web端" stroke="none" stroke-width="1" fill="none" fill-rule="evenodd">
        <g id="01首页" transform="translate(-567.000000, -573.000000)" fill="#FFFFFF">
            <g id="btn-安卓下载" transform="translate(523.000000, 563.000000)">
                <g id="icon_android" transform="translate(40.000000, 7.000000)">
                    <rect id="矩形" fill-rule="evenodd" opacity="0" x="0" y="0" width="48" height="48"></rect>
                    <path d="M40.93,17.0707488 C41.57,17.0707488 42.12,17.2707488 42.56,17.6807488 C43.01,18.0907488 43.23,18.5907488 43.23,19.1707488 L43.23,31.5807488 C43.23,32.1407488 43.01,32.6307488 42.56,33.0307488 C42.12,33.4407488 41.57,33.6407488 40.93,33.6407488 L40.18,33.6407488 C39.54,33.6407488 39,33.4407488 38.55,33.0307488 C38.11,32.6307488 37.88,32.1407488 37.88,31.5807488 L37.88,19.1707488 C37.88,18.5907488 38.11,18.0907488 38.55,17.6807488 C39,17.2707488 39.54,17.0707488 40.18,17.0707488 L40.93,17.0707488 L40.93,17.0707488 Z M7.05,17.0707488 C7.69,17.0707488 8.22,17.2707488 8.63,17.6807488 C9.05,18.0907488 9.26,18.5907488 9.26,19.1707488 L9.26,31.5807488 C9.26,32.1407488 9.05,32.6307488 8.63,33.0307488 C8.22,33.4407488 7.69,33.6407488 7.05,33.6407488 L6.29,33.6407488 C5.65,33.6407488 5.11,33.4407488 4.67,33.0307488 C4.22,32.6307488 4,32.1407488 4,31.5807488 L4,19.1707488 C4,18.5907488 4.22,18.0907488 4.67,17.6807488 C5.11,17.2707488 5.65,17.0707488 6.29,17.0707488 L7.05,17.0707488 L7.05,17.0707488 Z M30.11,7.31074875 C30.61,7.54074875 31.13,7.85074875 31.68,8.24074875 C32.22,8.63074875 32.74,9.10074875 33.25,9.63074875 C33.75,10.1607488 34.18,10.7407488 34.56,11.3707488 C34.94,12.0007488 35.21,12.6707488 35.38,13.3707488 L11.64,13.3707488 C12.09,11.8807488 12.79,10.6607488 13.75,9.71074875 C14.71,8.76074875 15.68,8.00074875 16.66,7.44074875 L14.52,4.08074875 C14.47,4.02074875 14.46,3.91074875 14.5,3.76074875 C14.55,3.61074875 14.69,3.44074875 14.94,3.28074875 C15.17,3.08074875 15.38,2.99074875 15.57,3.00074875 C15.77,3.02074875 15.89,3.05074875 15.95,3.11074875 L18.12,6.56074875 C18.9,6.19074875 19.72,5.91074875 20.59,5.71074875 C21.45,5.52074875 22.34,5.42074875 23.26,5.42074875 C25.15,5.42074875 26.92,5.81074875 28.57,6.60074875 L30.78,3.11074875 C30.83,3.05074875 30.94,3.02074875 31.09,3.02074875 C31.25,3.02074875 31.48,3.11074875 31.78,3.28074875 C32.06,3.42074875 32.22,3.54074875 32.26,3.65074875 C32.3,3.77074875 32.3,3.85074875 32.24,3.91074875 L30.11,7.31074875 L30.11,7.31074875 Z M18.45,10.9307488 C18.81,10.9307488 19.12,10.8007488 19.37,10.5507488 C19.62,10.3007488 19.75,9.99074875 19.75,9.63074875 C19.75,9.26074875 19.62,8.95074875 19.37,8.70074875 C19.12,8.45074875 18.81,8.32074875 18.45,8.32074875 C18.09,8.32074875 17.79,8.45074875 17.53,8.70074875 C17.28,8.95074875 17.16,9.26074875 17.16,9.63074875 C17.16,9.99074875 17.28,10.3007488 17.53,10.5507488 C17.79,10.8007488 18.09,10.9307488 18.45,10.9307488 L18.45,10.9307488 Z M28.73,10.7607488 C29.1,10.7607488 29.4,10.6407488 29.65,10.3807488 C29.9,10.1307488 30.03,9.82074875 30.03,9.46074875 C30.03,9.10074875 29.9,8.79074875 29.65,8.53074875 C29.4,8.28074875 29.1,8.16074875 28.73,8.16074875 C28.37,8.16074875 28.06,8.28074875 27.81,8.53074875 C27.56,8.79074875 27.44,9.10074875 27.44,9.46074875 C27.44,9.82074875 27.56,10.1307488 27.81,10.3807488 C28.06,10.6407488 28.37,10.7607488 28.73,10.7607488 L28.73,10.7607488 Z M35.38,16.0207488 L35.42,34.9507488 C35.42,35.5607488 35.22,36.0807488 34.81,36.5007488 C34.41,36.9207488 33.91,37.1307488 33.33,37.1307488 L32.74,37.1307488 L32.74,43.0207488 C32.74,43.5807488 32.54,44.0707488 32.14,44.4907488 C31.73,44.9107488 31.24,45.1207488 30.66,45.1207488 L29.44,45.1207488 C28.89,45.1207488 28.41,44.9107488 28,44.4907488 C27.6,44.0707488 27.39,43.5807488 27.39,43.0207488 L27.39,37.1307488 L19.71,37.1307488 L19.71,43.0207488 C19.71,43.5807488 19.5,44.0707488 19.1,44.4907488 C18.7,44.9107488 18.2,45.1207488 17.62,45.1207488 L16.41,45.1207488 C15.85,45.1207488 15.37,44.9107488 14.96,44.4907488 C14.56,44.0707488 14.36,43.5807488 14.36,43.0207488 L14.36,37.1307488 L13.9,37.1307488 C13.31,37.1307488 12.82,36.9207488 12.41,36.5007488 C12.01,36.0807488 11.81,35.5607488 11.81,34.9507488 L11.81,16.0207488 L35.38,16.0207488 L35.38,16.0207488 Z" fill-rule="nonzero"></path>
                </g>
            </g>
        </g>
    </g>
</svg>