<?xml version="1.0" encoding="UTF-8"?>
<svg width="20px" height="20px" viewBox="0 0 20 20" version="1.1" xmlns="http://www.w3.org/2000/svg" xmlns:xlink="http://www.w3.org/1999/xlink">
    <!-- Generator: Sketch 55.1 (78136) - https://sketchapp.com -->
    <title>fo_db</title>
    <desc>Created with Sketch.</desc>
    <g id="fo_db" stroke="none" stroke-width="1" fill="none" fill-rule="evenodd">
        <g>
            <rect id="矩形" fill="#D8D8D8" opacity="0" x="0" y="0" width="20" height="20"></rect>
            <path d="M0.303803248,4.2882179 C-0.0759148454,4.65882516 -0.10332711,5.27998893 0.24212646,5.6858181 L9.10569532,15.6812647 C9.2836052,15.8818713 9.53221328,15.9970605 9.79338165,16 C10.05455,16.0027293 10.3053763,15.8929603 10.487204,15.6962579 L19.7261621,5.70081127 C19.9662003,5.44502208 20.0570718,5.07384448 19.9642367,4.72836229 C19.8714015,4.38288009 19.6091158,4.11614763 19.277074,4.02954934 C18.9450322,3.94295105 18.5942245,4.04978548 18.3579921,4.3094451 L9.81741046,13.5492359 L1.6369738,4.32343873 C1.27604934,3.93370879 0.683521342,3.91761064 0.303803248,4.2882179 Z" id="路径" fill="#FFFFFF" fill-rule="nonzero" opacity="0.2" transform="translate(10.000000, 10.000000) rotate(90.000000) translate(-10.000000, -10.000000) "></path>
        </g>
    </g>
</svg>