<?xml version="1.0" encoding="UTF-8"?>
<svg width="24px" height="24px" viewBox="0 0 24 24" version="1.1" xmlns="http://www.w3.org/2000/svg" xmlns:xlink="http://www.w3.org/1999/xlink">
    <!-- Generator: Sketch 55.1 (78136) - https://sketchapp.com -->
    <title>home_ic_download</title>
    <desc>Created with Sketch.</desc>
    <g id="home_ic_download" stroke="none" stroke-width="1" fill="none" fill-rule="evenodd">
        <g>
            <rect id="矩形" fill="#D8D8D8" opacity="0" x="0" y="0" width="24" height="24"></rect>
            <path d="M6.9356725,20.3235867 C6.41891484,20.3235867 6,19.9046719 6,19.3879142 L6,3.9356725 C6,3.41891485 6.41891485,3 6.9356725,3 L17.3703704,3 C17.887128,3 18.3060429,3.41891485 18.3060429,3.9356725 L18.3060429,19.3879142 C18.3060429,19.9046719 17.887128,20.3235867 17.3703704,20.3235867 L6.9356725,20.3235867 Z M13.417154,18.208577 C13.417154,17.5410983 12.8760556,17 12.208577,17 C11.5410983,17 11,17.5410984 11,18.208577 C11,18.5291115 11.1273319,18.8365178 11.353984,19.06317 C11.5806362,19.2898221 11.8880425,19.417154 12.208577,19.417154 C12.8760557,19.417154 13.417154,18.8760556 13.417154,18.208577 Z M16.6101364,4.73489277 L7.69590643,4.73489277 L7.69590643,15.4307992 L16.6101364,15.4307992 L16.6101364,4.73489277 Z" id="形状" fill="#3683FF" fill-rule="nonzero"></path>
        </g>
    </g>
</svg>