<?xml version="1.0" encoding="UTF-8"?>
<svg width="56px" height="56px" viewBox="0 0 56 56" version="1.1" xmlns="http://www.w3.org/2000/svg" xmlns:xlink="http://www.w3.org/1999/xlink">
    <!-- Generator: Sketch 55.1 (78136) - https://sketchapp.com -->
    <title>home_ic_login_attention</title>
    <desc>Created with Sketch.</desc>
    <defs>
        <circle id="path-1" cx="28" cy="28" r="28"></circle>
        <linearGradient x1="73.4505585%" y1="0%" x2="73.4505585%" y2="100%" id="linearGradient-3">
            <stop stop-color="#66B9FF" stop-opacity="0.0679086538" offset="0%"></stop>
            <stop stop-color="#3683FF" stop-opacity="0" offset="100%"></stop>
        </linearGradient>
    </defs>
    <g id="home_ic_login_attention" stroke="none" stroke-width="1" fill="none" fill-rule="evenodd">
        <g>
            <rect id="矩形" fill="#D8D8D8" opacity="0" x="0" y="0" width="56" height="56"></rect>
            <g id="形状备份">
                <mask id="mask-2" fill="white">
                    <use xlink:href="#path-1"></use>
                </mask>
                <use id="蒙版" fill="#EAF2FF" xlink:href="#path-1"></use>
                <path d="M45.703555,56 C31.9292379,45.5948408 24.4772502,37.4620882 23.2965281,31.124939 C21.6810861,22.4545696 26.8679459,14.6133855 33.9487715,12.5486247 C39.5777969,11.1414703 44.3473313,12.4416274 48,16.4441447 C51.6526687,12.4416274 56.4222031,11.1414703 62.0512285,12.5486247 C69.1320541,14.6133855 74.3189139,22.4545696 72.7034719,31.124939 C72.6509928,31.4066038 63.6510205,39.6982909 45.703555,56 Z" fill="url(#linearGradient-3)" mask="url(#mask-2)"></path>
            </g>
            <path d="M33.6282468,32.4366883 L33.6282468,30.2451299 C33.6282468,29.6399477 34.1188438,29.1493506 34.724026,29.1493506 C35.3292081,29.1493506 35.8198052,29.6399477 35.8198052,30.2451299 L35.8198052,32.4366883 L38.0552376,32.4366883 C38.6604198,32.4366883 39.1510168,32.9272854 39.1510168,33.5324675 C39.1510168,34.1376497 38.6604198,34.6282468 38.0552376,34.6282468 L35.8198052,34.6282468 L35.8198052,36.8198052 C35.8198052,37.4249873 35.3292081,37.9155844 34.724026,37.9155844 C34.1188438,37.9155844 33.6282468,37.4249873 33.6282468,36.8198052 L33.6282468,34.6282468 L31.4366883,34.6282468 C30.8315062,34.6282468 30.3409091,34.1376497 30.3409091,33.5324675 C30.3409091,32.9272854 30.8315062,32.4366883 31.4366883,32.4366883 L33.6282468,32.4366883 Z M38.8804168,26.6656893 C39.028496,26.3153855 39.1314275,25.98463 39.1891659,25.6738476 C39.8245769,22.2536906 37.7770713,19.1495075 35.0493443,18.3512727 C32.7486634,17.7752341 30.9394679,18.2860692 29.5143068,19.8977485 L28.1493506,21.4534004 L26.7843945,19.8977484 C25.3592334,18.2860692 23.5500379,17.7752341 21.249357,18.3512727 C18.52163,19.1495075 16.4741244,22.2536906 17.1095354,25.6738476 C17.5942882,28.2830734 21.2645749,32.3001537 28.0935371,37.4735823 C28.1327971,37.5174576 28.1514017,37.573878 28.1493506,37.6428435 C28.1493506,37.9552783 28.1493506,39.4098242 28.1493506,39.7164237 C28.1493506,39.9208234 28.056049,39.9844394 27.8694458,39.9072717 L27.7538146,39.8247031 L26.9414802,39.2093016 C19.6965472,33.7207452 15.7769952,29.4308474 15.1559661,26.0881017 C14.3062855,21.5146195 17.0344391,17.3785194 20.7587694,16.2893908 C23.7194906,15.5471392 26.2281418,16.2329514 28.1493506,18.3442158 C30.0705595,16.2329514 32.5792107,15.5471392 35.5399319,16.2893908 C39.2642622,17.3785194 41.9924158,21.5146195 41.1427352,26.0881017 C41.1013313,26.3109624 41.0452657,26.538033 40.9745307,26.7693881 C40.9554254,26.8318764 40.8726021,26.9577922 40.7427525,26.9577922 C39.9944438,26.9577922 39.4264564,26.9577922 39.0387904,26.9577922 C38.9420748,26.9577922 38.839876,26.7615946 38.8804168,26.6656893 Z" id="形状" fill="#3683FF" fill-rule="nonzero"></path>
        </g>
    </g>
</svg>