<?xml version="1.0" encoding="UTF-8"?>
<svg width="56px" height="56px" viewBox="0 0 56 56" version="1.1" xmlns="http://www.w3.org/2000/svg" xmlns:xlink="http://www.w3.org/1999/xlink">
    <!-- Generator: Sketch 55.1 (78136) - https://sketchapp.com -->
    <title>home_ic_login_barrage</title>
    <desc>Created with Sketch.</desc>
    <defs>
        <circle id="path-1" cx="28" cy="28" r="28"></circle>
        <linearGradient x1="44.1875%" y1="41.02625%" x2="50%" y2="60.7475%" id="linearGradient-3">
            <stop stop-color="#66B9FF" stop-opacity="0.103884397" offset="0%"></stop>
            <stop stop-color="#3683FF" stop-opacity="0" offset="100%"></stop>
        </linearGradient>
    </defs>
    <g id="home_ic_login_barrage" stroke="none" stroke-width="1" fill="none" fill-rule="evenodd">
        <g>
            <rect id="矩形" fill="#D8D8D8" opacity="0" x="0" y="0" width="56" height="56"></rect>
            <g id="矩形-+-矩形备份-10蒙版">
                <mask id="mask-2" fill="white">
                    <use xlink:href="#path-1"></use>
                </mask>
                <use id="蒙版" fill="#EAF2FF" xlink:href="#path-1"></use>
                <rect id="矩形" fill="url(#linearGradient-3)" mask="url(#mask-2)" x="37" y="6" width="25" height="8" rx="4"></rect>
                <rect id="矩形备份-10" fill="url(#linearGradient-3)" mask="url(#mask-2)" x="-9" y="43" width="25" height="8" rx="4"></rect>
            </g>
            <path d="M38.4599424,19.1769243 C38.8849013,19.5897204 39.1291941,20.1127961 39.1291941,20.6121875 L39.1291941,33.4111349 C39.1291941,33.9321875 38.8585033,34.5236266 38.405148,34.9918832 C37.9984457,35.4127961 37.4882484,35.6855099 37.1065872,35.6855099 L30.7789967,35.6855099 C30.3074836,35.6855099 29.8854852,35.8957319 29.6012747,36.2274589 L27.9182929,38.2040413 C27.8824886,38.2460918 27.8193749,38.2511553 27.7773245,38.215351 C27.7732589,38.2118893 27.7694772,38.2081076 27.7660155,38.2040421 L26.0847862,36.2295559 C25.798824,35.8957072 25.3768257,35.6854852 24.9057319,35.6854852 L18.671102,35.6854852 C18.3463076,35.6854852 17.7988569,35.4648766 17.3068914,34.9729112 C16.8365872,34.5026069 16.5557813,33.9186184 16.5557813,33.4111102 L16.5557813,20.6121628 C16.5557813,19.4990049 17.8137582,18.5590872 18.6041201,18.5590872 L37.1735937,18.5590872 C37.5680592,18.5590872 38.0735444,18.802023 38.4599424,19.1769243 Z" id="路径" stroke="#3683FF" stroke-width="2" fill-rule="nonzero"></path>
            <path d="M21.8946546,26.1488898 L29.4688651,26.1488898 C30.0393339,26.1488898 30.5014967,25.6867023 30.5014967,25.1162582 L30.5014967,25.0824095 C30.5014967,24.5112747 30.0393092,24.0490872 29.4688651,24.0490872 L21.8939885,24.0490872 C21.3235197,24.0490872 20.8613569,24.5112747 20.8613569,25.0817188 L20.8613569,25.1162336 C20.8613569,25.6867023 21.3242105,26.1488651 21.8939885,26.1488651 L21.8946546,26.1488898 Z M33.7895559,28.7656497 L21.8939885,28.7656497 C21.3235197,28.7656497 20.8613569,29.2278372 20.8613569,29.7982813 L20.8613569,29.8321299 C20.8613569,30.4032648 21.3235444,30.8654523 21.8939885,30.8654523 L33.7902467,30.8654523 C34.3606908,30.8654523 34.8228783,30.4032648 34.8228783,29.8328207 L34.8228783,29.798972 C34.8228783,29.2278372 34.3606908,28.7656497 33.7902467,28.7656497 L33.7895559,28.7656497 Z M32.7048191,25.1108306 C32.7046217,25.1187747 32.7044737,25.1281003 32.7044737,25.1375 C32.7044737,25.7175411 33.1746546,26.187722 33.7546957,26.187722 C34.3347368,26.187722 34.8049178,25.7175411 34.8049178,25.1375 C34.8049178,25.128125 34.8047944,25.1187993 34.8045477,25.1094737 C34.7896957,24.5424095 34.3253372,24.087278 33.7546957,24.087278 C33.1840543,24.087278 32.7196957,24.5424095 32.7048437,25.1094737 L32.7048191,25.1108306 Z" id="形状" fill="#3683FF" fill-rule="nonzero"></path>
        </g>
    </g>
</svg>