<?xml version="1.0" encoding="UTF-8"?>
<svg width="16px" height="16px" viewBox="0 0 16 16" version="1.1" xmlns="http://www.w3.org/2000/svg" xmlns:xlink="http://www.w3.org/1999/xlink">
    <!-- Generator: Sketch 55 (78076) - https://sketchapp.com -->
    <title>图标/删除</title>
    <desc>Created with Sketch.</desc>
    <g id="图标/删除" stroke="none" stroke-width="1" fill="none" fill-rule="evenodd">
        <g id="编组-2">
            <rect id="占位符" fill="#D8D8D8" opacity="0" x="0" y="0" width="16" height="16"></rect>
            <rect id="矩形" fill="#FFFFFF" x="0" y="3" width="16" height="1" rx="0.5"></rect>
            <rect id="矩形" fill="#FFFFFF" x="4" y="1" width="8" height="1" rx="0.5"></rect>
            <path d="M12.5,4 L12.5,13 C12.5,13.8465362 11.9554468,14.5 11.3333333,14.5 L4.66666667,14.5 C4.04455316,14.5 3.5,13.8465362 3.5,13 L3.5,4 L2.5,4 L2.5,13 C2.5,14.3626028 3.44783101,15.5 4.66666667,15.5 L11.3333333,15.5 C12.552169,15.5 13.5,14.3626028 13.5,13 L13.5,4 L12.5,4 Z" id="路径" fill="#FFFFFF" fill-rule="nonzero"></path>
            <rect id="矩形" fill="#FFFFFF" x="9" y="6" width="1" height="7" rx="0.5"></rect>
            <rect id="矩形" fill="#FFFFFF" x="6" y="6" width="1" height="7" rx="0.5"></rect>
        </g>
    </g>
</svg>