<?xml version="1.0" encoding="UTF-8"?>
<svg width="635px" height="62px" viewBox="0 0 635 62" version="1.1" xmlns="http://www.w3.org/2000/svg" xmlns:xlink="http://www.w3.org/1999/xlink">
    <!-- Generator: Sketch 55 (78076) - https://sketchapp.com -->
    <title>文案</title>
    <desc>Created with Sketch.</desc>
    <defs>
        <path d="M2.3994,0.948539638 L53.0658,0.948539638 L53.0658,24.403338 L2.3994,24.403338 L2.3994,0.948539638 Z M12.4434,7.41585535 L12.4434,9.74408901 L43.0218,9.74408901 L43.0218,7.41585535 L12.4434,7.41585535 Z M43.0218,17.8497914 L43.0218,15.6077886 L12.4434,15.6077886 L12.4434,17.8497914 L43.0218,17.8497914 Z" id="path-1"></path>
        <path d="M2.1762,53.0319889 L2.1762,32.5952712 L0.1116,32.5952712 L0.1116,26.2141864 L55.4094,26.2141864 L55.4094,32.5952712 L29.295,32.5952712 L29.295,51.0486787 L31.0248,50.876217 L31.0248,57.6884562 L29.295,57.7746871 L29.295,62 L19.251,62 L19.251,58.550765 L0.1116,60.0166898 L0.1116,53.2044506 L2.1762,53.0319889 Z M12.2202,52.3421419 L19.251,51.8247566 L19.251,49.2378303 L12.2202,49.2378303 L12.2202,52.3421419 Z M12.2202,43.3741307 L19.251,43.3741307 L19.251,40.7872045 L12.2202,40.7872045 L12.2202,43.3741307 Z M12.2202,34.9235049 L19.251,34.9235049 L19.251,32.5952712 L12.2202,32.5952712 L12.2202,34.9235049 Z" id="path-2"></path>
        <polygon id="path-3" points="31.9176 43.201669 40.5666 43.201669 42.8544 45.5299026 46.4814 41.4770515 31.9176 41.4770515 31.9176 34.6648122 55.1304 34.6648122 55.1304 44.1502086 48.9366 51.6522949 55.6326 58.3783032 55.6326 62 46.7604 62 43.4124 58.3783032 40.5108 62 31.1922 62 31.1922 58.3783032 37.1628 51.7385257 31.9176 46.1335188"></polygon>
        <path d="M113.387667,30.6981919 L113.387667,38.3727399 L100.665267,38.3727399 L113.331867,61.6550765 L101.334867,61.6550765 L93.2438667,45.6161335 L86.6594667,61.6550765 L75.8900667,61.6550765 L85.6550667,38.3727399 L77.1176667,38.3727399 L77.1176667,30.6981919 L87.6638667,30.6981919 L87.6638667,13.1933241 L78.4010667,13.1933241 L78.4010667,5.4325452 L87.6638667,5.4325452 L87.6638667,0.0862308762 L97.7078667,0.0862308762 L97.7078667,5.4325452 L111.155667,5.4325452 L111.155667,30.6981919 L113.387667,30.6981919 Z M101.892867,13.1933241 L97.7078667,13.1933241 L97.7078667,30.6981919 L101.892867,30.6981919 L101.892867,13.1933241 Z" id="path-4"></path>
        <polygon id="path-5" points="77.7314667 12.4172462 77.7314667 20.6954103 74.6624667 20.6954103 74.6624667 61.6550765 64.9532667 61.6550765 64.9532667 0.0862308762 74.6624667 0.0862308762 74.6624667 12.4172462"></polygon>
        <polygon id="path-6" points="63.7814667 10.1752434 63.1118667 47.5994437 58.0898667 47.5994437 58.7594667 10.1752434"></polygon>
        <polygon id="path-7" points="121.090133 61.6550765 118.858133 48.3755216 127.507133 48.3755216 130.018133 61.6550765"></polygon>
        <path d="M175.9994,0.948539638 L226.6658,0.948539638 L226.6658,24.403338 L175.9994,24.403338 L175.9994,0.948539638 Z M186.0434,7.41585535 L186.0434,9.74408901 L216.6218,9.74408901 L216.6218,7.41585535 L186.0434,7.41585535 Z M216.6218,17.8497914 L216.6218,15.6077886 L186.0434,15.6077886 L186.0434,17.8497914 L216.6218,17.8497914 Z" id="path-8"></path>
        <path d="M175.7762,53.0319889 L175.7762,32.5952712 L173.7116,32.5952712 L173.7116,26.2141864 L229.0094,26.2141864 L229.0094,32.5952712 L202.895,32.5952712 L202.895,51.0486787 L204.6248,50.876217 L204.6248,57.6884562 L202.895,57.7746871 L202.895,62 L192.851,62 L192.851,58.550765 L173.7116,60.0166898 L173.7116,53.2044506 L175.7762,53.0319889 Z M185.8202,52.3421419 L192.851,51.8247566 L192.851,49.2378303 L185.8202,49.2378303 L185.8202,52.3421419 Z M185.8202,43.3741307 L192.851,43.3741307 L192.851,40.7872045 L185.8202,40.7872045 L185.8202,43.3741307 Z M185.8202,34.9235049 L192.851,34.9235049 L192.851,32.5952712 L185.8202,32.5952712 L185.8202,34.9235049 Z" id="path-9"></path>
        <polygon id="path-10" points="205.5176 43.201669 214.1666 43.201669 216.4544 45.5299026 220.0814 41.4770515 205.5176 41.4770515 205.5176 34.6648122 228.7304 34.6648122 228.7304 44.1502086 222.5366 51.6522949 229.2326 58.3783032 229.2326 62 220.3604 62 217.0124 58.3783032 214.1108 62 204.7922 62 204.7922 58.3783032 210.7628 51.7385257 205.5176 46.1335188"></polygon>
        <path d="M249.490067,57.9471488 L258.250667,47.8581363 L246.867467,37.3379694 L242.849867,62 L231.634067,62 L240.227267,8.19193324 L232.192067,8.19193324 L232.192067,0.431154381 L283.528067,0.431154381 L283.528067,8.53685675 L273.484067,22.4200278 L286.429667,22.4200278 L286.429667,33.0264256 L274.823267,46.8233658 L287.043467,57.9471488 L287.043467,62 L273.651467,62 L267.122867,55.9638387 L262.045067,62 L249.490067,62 L249.490067,57.9471488 Z M251.554667,8.19193324 L249.099467,23.4547983 L266.062667,38.8901252 L274.097867,29.6634214 L261.598667,29.6634214 L261.598667,21.2127955 L270.415067,8.19193324 L251.554667,8.19193324 Z" id="path-11"></path>
        <path d="M289.835533,60.3616134 L289.835533,2.32823366 L312.769333,2.32823366 L312.769333,60.3616134 L289.835533,60.3616134 Z M303.115933,52.6870654 L303.115933,34.4061196 L299.154133,34.4061196 L299.154133,52.6870654 L303.115933,52.6870654 Z M299.154133,10.0027816 L299.154133,26.7315716 L303.115933,26.7315716 L303.115933,10.0027816 L299.154133,10.0027816 Z" id="path-12"></path>
        <polygon id="path-13" points="331.573933 0.0862308762 341.617933 0.0862308762 341.617933 6.46731572 344.575333 6.46731572 344.575333 14.2280946 341.617933 14.2280946 341.617933 51.9109875 339.664933 61.5688456 329.341933 61.5688456 331.573933 51.0486787 331.573933 14.2280946 313.885333 14.2280946 313.885333 6.46731572 331.573933 6.46731572"></polygon>
        <polygon id="path-14" points="314.889733 21.0403338 324.543133 21.0403338 328.449133 50.7037552 318.739933 50.7037552"></polygon>
        <path d="M354.9562,8.17124146e-14 L364.8886,8.17124146e-14 L364.219,4.74269819 L374.263,4.74269819 L374.263,61.5688456 L347.8138,61.5688456 L347.8138,4.74269819 L354.2866,4.74269819 L354.9562,8.17124146e-14 Z M364.3864,53.8942976 L364.3864,36.9930459 L357.6904,36.9930459 L357.6904,53.8942976 L364.3864,53.8942976 Z M364.3864,12.5034771 L357.6904,12.5034771 L357.6904,29.3184979 L364.3864,29.3184979 L364.3864,12.5034771 Z" id="path-15"></path>
        <polygon id="path-16" points="377.611 0.172461752 387.5434 0.172461752 386.9854 4.22531293 402.3862 4.22531293 402.3862 51.7385257 400.6564 61.7413074 390.2776 61.7413074 392.398 50.5312935 392.398 11.9860918 385.981 11.9860918 384.865 20.6954103 374.9326 20.6954103"></polygon>
        <polygon id="path-17" points="376.6624 26.1279555 386.3158 26.1279555 390.0544 51.3073713 380.122 51.3073713"></polygon>
        <polygon id="path-18" points="576.2094 4.65646732 576.2094 12.4172462 574.368 12.4172462 574.368 35.6995828 569.2344 45.27121 576.1536 57.7746871 576.1536 61.6550765 565.719 61.6550765 563.0964 56.7399166 560.418 61.6550765 550.653 61.6550765 550.653 57.7746871 557.07 45.3574409 551.5458 34.9235049 551.5458 21.0403338 561.3108 21.0403338 561.3108 30.8706537 562.929 33.8887344 564.324 31.2155772 564.324 12.4172462 561.7014 12.4172462 560.8644 18.9707928 550.8762 18.9707928 553.3314 0.0862308762 563.3754 0.0862308762 562.7616 4.65646732"></polygon>
        <polygon id="path-19" points="530.2302 0.862308762 540.1626 0.862308762 540.1626 10.0890125 549.6486 10.0890125 549.6486 17.7635605 540.1626 17.7635605 540.1626 31.9916551 530.2302 31.9916551 530.2302 17.7635605 521.3022 17.7635605 521.3022 10.0890125 530.2302 10.0890125"></polygon>
        <polygon id="path-20" points="549.6486 31.9916551 542.4504 31.9916551 541.3902 19.4019471 548.6442 19.4019471"></polygon>
        <polygon id="path-21" points="522.3066 19.4019471 529.0026 19.4019471 527.9424 31.9916551 521.3022 31.9916551"></polygon>
        <polygon id="path-22" points="548.5326 8.62308762 541.3344 8.62308762 542.3946 0.862308762 549.5928 0.862308762"></polygon>
        <polygon id="path-23" points="521.358 0.862308762 527.9982 0.862308762 529.0584 8.62308762 522.4182 8.62308762"></polygon>
        <path d="M608.352267,41.0458971 L615.885267,41.0458971 L615.885267,35.1821975 L606.901467,35.1821975 L606.566667,61.8275382 L596.522667,61.8275382 L597.303867,0.0862308762 L634.131867,0.0862308762 L634.131867,20.5229485 L607.068867,20.5229485 L606.957267,27.5076495 L615.885267,27.5076495 L615.885267,21.9888734 L625.929267,21.9888734 L625.929267,27.5076495 L634.299267,27.5076495 L634.299267,35.1821975 L625.929267,35.1821975 L625.929267,41.0458971 L633.518067,41.0458971 L633.518067,61.7413074 L608.352267,61.7413074 L608.352267,41.0458971 Z M624.534267,12.8484006 L624.534267,7.76077886 L607.236267,7.76077886 L607.180467,12.8484006 L624.534267,12.8484006 Z M617.503467,54.4979138 L624.366867,54.4979138 L624.366867,48.2892907 L617.503467,48.2892907 L617.503467,54.4979138 Z" id="path-24"></path>
        <polygon id="path-25" points="595.964667 33.0264256 595.964667 40.7872045 592.505067 41.4770515 592.505067 52.6870654 590.719467 61.6550765 580.675467 61.6550765 582.461067 52.945758 582.461067 43.5465925 578.834067 44.2364395 578.834067 36.4756606 582.461067 35.7858136 582.461067 16.2114047 578.834067 16.2114047 578.834067 8.45062587 582.461067 8.45062587 582.461067 0.0862308762 592.505067 0.0862308762 592.505067 8.45062587 595.964667 8.45062587 595.964667 16.2114047 592.505067 16.2114047 592.505067 33.7162726"></polygon>
        <polygon id="path-26" points="460.085467 53.4631433 460.085467 61.2239221 433.747867 61.2239221 433.747867 0.603616134 443.791867 0.603616134 443.791867 18.3671766 460.085467 11.8998609 460.085467 20.178025 443.791867 26.6453408 443.791867 53.4631433"></polygon>
    </defs>
    <g id="web端" stroke="none" stroke-width="1" fill="none" fill-rule="evenodd">
        <g id="02比分数据" transform="translate(-1034.000000, -330.000000)" fill-rule="nonzero">
            <g id="文案" transform="translate(1034.000000, 330.000000)">
                <g id="形状结合">
                    <use fill="#000000" xlink:href="#path-1"></use>
                    <use fill="#1B1F2C" xlink:href="#path-1"></use>
                </g>
                <g id="形状结合">
                    <use fill="#000000" xlink:href="#path-2"></use>
                    <use fill="#1B1F2C" xlink:href="#path-2"></use>
                </g>
                <g id="路径">
                    <use fill="#000000" xlink:href="#path-3"></use>
                    <use fill="#1B1F2C" xlink:href="#path-3"></use>
                </g>
                <g id="形状结合">
                    <use fill="#000000" xlink:href="#path-4"></use>
                    <use fill="#1B1F2C" xlink:href="#path-4"></use>
                </g>
                <g id="路径">
                    <use fill="#000000" xlink:href="#path-5"></use>
                    <use fill="#1B1F2C" xlink:href="#path-5"></use>
                </g>
                <g id="路径">
                    <use fill="#000000" xlink:href="#path-6"></use>
                    <use fill="#1B1F2C" xlink:href="#path-6"></use>
                </g>
                <g id="路径">
                    <use fill="#000000" xlink:href="#path-7"></use>
                    <use fill="#1B1F2C" xlink:href="#path-7"></use>
                </g>
                <g id="形状结合">
                    <use fill="#000000" xlink:href="#path-8"></use>
                    <use fill="#1B1F2C" xlink:href="#path-8"></use>
                </g>
                <g id="形状结合">
                    <use fill="#000000" xlink:href="#path-9"></use>
                    <use fill="#1B1F2C" xlink:href="#path-9"></use>
                </g>
                <g id="路径">
                    <use fill="#000000" xlink:href="#path-10"></use>
                    <use fill="#1B1F2C" xlink:href="#path-10"></use>
                </g>
                <g id="形状结合">
                    <use fill="#000000" xlink:href="#path-11"></use>
                    <use fill="#1B1F2C" xlink:href="#path-11"></use>
                </g>
                <g id="形状结合">
                    <use fill="#000000" xlink:href="#path-12"></use>
                    <use fill="#1B1F2C" xlink:href="#path-12"></use>
                </g>
                <g id="路径">
                    <use fill="#000000" xlink:href="#path-13"></use>
                    <use fill="#1B1F2C" xlink:href="#path-13"></use>
                </g>
                <g id="路径">
                    <use fill="#000000" xlink:href="#path-14"></use>
                    <use fill="#1B1F2C" xlink:href="#path-14"></use>
                </g>
                <g id="形状结合">
                    <use fill="#000000" xlink:href="#path-15"></use>
                    <use fill="#1B1F2C" xlink:href="#path-15"></use>
                </g>
                <g id="路径">
                    <use fill="#000000" xlink:href="#path-16"></use>
                    <use fill="#1B1F2C" xlink:href="#path-16"></use>
                </g>
                <g id="路径">
                    <use fill="#000000" xlink:href="#path-17"></use>
                    <use fill="#1B1F2C" xlink:href="#path-17"></use>
                </g>
                <g id="路径">
                    <use fill="#000000" xlink:href="#path-18"></use>
                    <use fill="#3683FF" xlink:href="#path-18"></use>
                </g>
                <path d="M533.1318,33.1988873 L533.1318,35.6133519 L549.0906,35.6133519 L549.0906,50.1001391 L543.7338,53.8942976 L549.3138,58.2058414 L549.3138,61.7413074 L538.1538,61.7413074 L535.6428,59.5855355 L532.6854,61.7413074 L521.5254,61.7413074 L521.5254,57.5159944 L527.9982,53.2044506 L523.311,49.2378303 L523.311,42.5980529 L521.1348,42.5980529 L521.1348,35.6133519 L523.311,35.6133519 L523.311,33.1988873 L533.1318,33.1988873 Z M539.2698,42.5980529 L533.1318,42.5980529 L533.1318,45.6161335 L535.9776,47.8581363 L539.2698,45.6161335 L539.2698,42.5980529 Z" id="形状结合" fill="#3683FF"></path>
                <g id="路径">
                    <use fill="#000000" xlink:href="#path-19"></use>
                    <use fill="#3683FF" xlink:href="#path-19"></use>
                </g>
                <g id="路径">
                    <use fill="#000000" xlink:href="#path-20"></use>
                    <use fill="#3683FF" xlink:href="#path-20"></use>
                </g>
                <g id="路径">
                    <use fill="#000000" xlink:href="#path-21"></use>
                    <use fill="#3683FF" xlink:href="#path-21"></use>
                </g>
                <g id="路径">
                    <use fill="#000000" xlink:href="#path-22"></use>
                    <use fill="#3683FF" xlink:href="#path-22"></use>
                </g>
                <g id="路径">
                    <use fill="#000000" xlink:href="#path-23"></use>
                    <use fill="#3683FF" xlink:href="#path-23"></use>
                </g>
                <g id="形状结合">
                    <use fill="#000000" xlink:href="#path-24"></use>
                    <use fill="#3683FF" xlink:href="#path-24"></use>
                </g>
                <g id="路径">
                    <use fill="#000000" xlink:href="#path-25"></use>
                    <use fill="#3683FF" xlink:href="#path-25"></use>
                </g>
                <polygon id="路径" fill="#3683FF" points="465.555933 27.2489569 516.054933 27.2489569 516.054933 53.2044506 514.548333 61.7413074 504.336933 61.7413074 506.010933 51.9972184 506.010933 35.0097357 484.527933 35.0097357 477.106533 61.7413074 466.616133 61.7413074 474.037533 35.0097357 465.555933 35.0097357"></polygon>
                <polygon id="路径" fill="#3683FF" points="509.972733 0.603616134 517.394133 24.0584145 506.847933 24.0584145 499.370733 0.603616134"></polygon>
                <polygon id="路径" fill="#3683FF" points="483.411933 0.603616134 474.818733 24.0584145 464.272533 24.0584145 472.865733 0.603616134"></polygon>
                <g id="路径">
                    <use fill="#000000" xlink:href="#path-26"></use>
                    <use fill="#3683FF" xlink:href="#path-26"></use>
                </g>
                <polygon id="路径" fill="#3683FF" points="405.847867 0.603616134 415.836067 0.603616134 415.836067 17.9360223 431.404267 17.9360223 431.404267 25.6968011 415.836067 25.6968011 415.836067 53.4631433 431.404267 53.4631433 431.404267 61.2239221 405.847867 61.2239221"></polygon>
            </g>
        </g>
    </g>
</svg>