<?xml version="1.0" encoding="UTF-8"?>
<svg width="22px" height="22px" viewBox="0 0 22 22" version="1.1" xmlns="http://www.w3.org/2000/svg" xmlns:xlink="http://www.w3.org/1999/xlink">
    <!-- Generator: Sketch 54.1 (76490) - https://sketchapp.com -->
    <title>am_bj</title>
    <desc>Created with Sketch.</desc>
    <g id="页面1" stroke="none" stroke-width="1" fill="none" fill-rule="evenodd">
        <g id="网站" transform="translate(-1884.000000, -568.000000)">
            <g id="am_bj" transform="translate(1883.000000, 566.000000)">
                <rect id="矩形" x="0" y="0" width="24" height="25"></rect>
                <path d="M11.5400042,16.1206055 C15.9457196,16.1206055 19.6681394,18.4024597 22.7072637,22.9661683 L22.7071609,22.9662367 C22.7561022,23.0397294 22.7361992,23.1389818 22.6627065,23.187923 C22.6364564,23.2054038 22.6056224,23.2147304 22.5740844,23.2147292 C15.7230433,23.2144647 9.158949,23.2143324 2.88180143,23.2143324 C2.16591099,23.2143324 1.126988,22.8929792 2.46101956,21.9084098 C7.80460031,18.3540213 9.48824637,17.3423375 11.5400042,16.1206055 Z" id="多边形" fill="#4ABB8A"></path>
                <path d="M3.92300323,22.4926409 L3.03300775,22.4926409 L3.03300775,7.15168525 L4.99401965,7.15168525 L4.99401965,20.9614292 L11.4070898,16.6527537 C11.5904607,16.5295544 11.8389849,16.5783331 11.9621842,16.761704 C12.0853835,16.9450749 12.0366048,17.1935992 11.8532339,17.3167985 L9.62438496,18.8142695 C10.8741954,19.193421 12.3169597,20.4828744 12.5631058,21.6311226 L20.8497778,21.5623551 C21.0706841,21.5605219 21.2512501,21.7381157 21.2530833,21.959022 C21.2549165,22.1799283 21.0773227,22.3604943 20.8564164,22.3623275 L4.01683301,22.5020719 C3.98386691,22.5023455 3.9525424,22.4990469 3.92300323,22.4926409 Z M11.7303861,21.6380329 C11.3532387,20.6930703 9.53141143,19.4798964 8.61711264,19.4910139 L5.34257079,21.6910426 L11.7303861,21.6380329 Z" id="形状结合" fill="#FFFFFF" fill-rule="nonzero"></path>
                <path d="M3.25392228,1.97737644 L13.9569547,6.38404742 C14.0386656,6.41768959 14.0776331,6.51120175 14.0439909,6.59291269 C14.0256017,6.63757691 13.9880195,6.67154335 13.9417289,6.68533614 L3.23869651,9.87442375 C3.15401028,9.89965695 3.06490297,9.85146075 3.03966976,9.76677452 C3.03525178,9.75194714 3.03300775,9.73655735 3.03300775,9.72108576 L3.03300775,2.12532718 C3.03300775,2.03696162 3.10464219,1.96532718 3.19300775,1.96532718 C3.21390462,1.96532718 3.23459911,1.96942067 3.25392228,1.97737644 Z" id="多边形复制-2" fill="#F44D4D"></path>
            </g>
        </g>
    </g>
</svg>