<?xml version="1.0" encoding="UTF-8"?>
<svg width="22px" height="22px" viewBox="0 0 22 22" version="1.1" xmlns="http://www.w3.org/2000/svg" xmlns:xlink="http://www.w3.org/1999/xlink">
    <!-- Generator: Sketch 54.1 (76490) - https://sketchapp.com -->
    <title>an_bj</title>
    <desc>Created with Sketch.</desc>
    <g id="页面1" stroke="none" stroke-width="1" fill="none" fill-rule="evenodd">
        <g id="网站" transform="translate(-2021.000000, -568.000000)">
            <g id="an_bj" transform="translate(2020.000000, 567.000000)">
                <rect id="矩形" x="0" y="0" width="24" height="24"></rect>
                <path d="M11.9613797,2.20716752 C7.47128386,2.20716752 3.58509904,5.19257233 2.50982838,9.46936627 C1.22508337,14.5796744 4.42345537,19.7631927 9.63971031,21.0210299 C10.4154079,21.2068096 11.2008436,21.3014262 11.9791123,21.3014262 C16.4692081,21.3014262 20.3553929,18.3160214 21.4306896,14.0391242 C22.0533113,11.5655865 21.6540579,8.99937354 20.3085109,6.8147108 C19.0103756,4.7136974 16.9923138,3.21289917 14.5942506,2.55859059 C13.2569243,2.32430855 12.3793007,2.20716752 11.9613797,2.20716752 Z" id="路径" fill="#FFFFFF" fill-rule="nonzero"></path>
                <path d="M11.9613797,2.20716752 C7.47128386,2.20716752 3.58509904,5.19257233 2.50982838,9.46936627 C1.22508337,14.5796744 4.42345537,19.7631927 9.63971031,21.0210299 C10.4154079,21.2068096 11.2008436,21.3014262 11.9791123,21.3014262 C16.4692081,21.3014262 20.3553929,18.3160214 21.4306896,14.0391242 C22.0533113,11.5655865 21.6540579,8.99937354 20.3085109,6.8147108 C19.0103756,4.7136974 16.9923138,3.21289917 14.5942506,2.55859059 C13.2569243,2.32430855 12.3793007,2.20716752 11.9613797,2.20716752 Z M9.34841121,22.193803 C7.90848018,21.8467358 6.58131117,21.2334181 5.40814881,20.3713435 C4.27174362,19.5374061 3.32204169,18.5106951 2.58476365,17.3172224 C1.84501881,16.1197565 1.3584568,14.8186838 1.13841461,13.4487619 C0.904890578,12.0310959 0.967349092,10.5952762 1.32205072,9.18260443 C1.6255575,7.98412238 2.1267796,6.85565026 2.81020826,5.8355193 C3.48063313,4.84342793 4.3046093,3.97262213 5.25728005,3.25359135 C6.20442683,2.53630535 7.25962613,1.97752556 8.39717579,1.58946734 C9.5487415,1.19839267 10.7521013,1 11.970246,1 C12.8463206,1 13.7320983,1.10649991 14.600947,1.31479077 C16.0408781,1.66185793 17.3680471,2.27517565 18.5412094,3.1372503 C19.6776146,3.97118766 20.6273166,4.99789869 21.3645946,6.19137138 C22.1043395,7.38883724 22.5909015,8.68990994 22.8109437,10.0598318 C23.0444677,11.4774978 22.9820092,12.9133175 22.6273075,14.3259893 C22.3238008,15.5244714 21.8225787,16.6529435 21.13915,17.6730745 C20.4687251,18.6651658 19.644749,19.5359716 18.6920782,20.2550024 C17.7449314,20.9722884 16.6897321,21.5310682 15.5517426,21.9192755 C14.3943973,22.3107533 13.1955406,22.5085938 11.9791123,22.5085938 C11.1030376,22.5085938 10.21726,22.4020938 9.34841121,22.193803 Z" id="形状" fill="#666666" fill-rule="nonzero"></path>
                <path d="M9.23357432,11.0391802 L2.42757167,7.96344472 L2.94756944,6.86523281 L10.6879149,10.4568157 L10.4096536,9.6482578 L11.5253965,8.67363879 L11.8371181,9.61369761 L13.8054635,1.61339285 L14.9965783,1.89665062 L12.7654495,11.1715815 L22.6818246,11.543322 L22.6122037,12.7484122 L14.85,12.3880568 L14.9203439,12.420697 L14.9203439,13.6091174 L12.8520488,12.6744236 L15.7644995,21.4574997 L14.5983297,21.8195057 L12.0119204,14.3040454 L11.8647388,14.9158875 L10.6100121,14.6012483 L10.9142533,13.3646654 L4.50678291,19.2144951 L3.67362909,18.3301684 L10.4080505,12.1818421 L8.85861591,12.1099106 L8.58630713,11.0149158 L9.23357432,11.0391802 Z M14.385332,2.42457523 L14.2781365,2.2535052 L14.1077113,2.35543716 L14.0863674,2.44416522 L14.3642534,2.510249 L14.385332,2.42457523 Z M11.5217548,14.0635342 L11.3043851,14.0090259 L11.2699755,14.1520683 L11.3569216,14.2935896 L11.4836474,14.2184209 L11.5217548,14.0635342 Z M4.74197237,18.3695746 L4.54719212,18.1628308 L4.48140086,18.2228963 L4.47364889,18.4246441 L4.67357599,18.4320185 L4.74197237,18.3695746 Z M21.8981032,11.9720125 L21.8816801,12.2562849 L21.9672047,12.259491 L22.126377,12.1189535 L21.994122,11.9764701 L21.8981032,11.9720125 Z M9.52773091,11.6643852 L9.46064215,11.3946112 L9.17756088,11.3814693 L9.15962903,11.7522609 L9.52773091,11.6643852 Z M11.2076708,9.64349072 L11.1370093,9.90507922 L11.1633522,9.98452147 L11.2876646,9.87593265 L11.2076708,9.64349072 Z M15.078658,20.8916138 L14.8079845,20.9756371 L14.8348845,21.0567594 L15.0213444,21.1494162 L15.1095413,20.9813529 L15.078658,20.8916138 Z M3.43453553,7.60092385 L3.34800402,7.56181895 L3.15867418,7.62891592 L3.22938438,7.81746039 L3.31352124,7.85650058 L3.43453553,7.60092385 Z M14.1626018,12.6556293 L14.1626018,12.8905617 L14.2895846,12.9494827 L14.3343037,12.9214413 L14.1626018,12.6556293 Z" id="形状结合" fill="#666666" fill-rule="nonzero"></path>
                <path d="M6.09632253,8.96795436 L5.50671362,4.05113482 L5.27175668,4.00335655 C3.65809017,5.33680495 2.44340712,7.16541011 1.8981297,9.3284632 C1.76070206,9.87139823 1.67203906,10.4230202 1.62770757,10.9833291 L6.09632253,8.96795436 Z M7.08491493,16.1260096 L2.22174964,15.2269093 C3.16601054,17.7548147 5.12102959,19.88312 7.72772166,21.0211118 L7.08491493,16.1260096 L7.08491493,16.1260096 Z M10.7777287,21.7030382 L10.875258,21.846373 C13.7080407,22.1417297 16.4565935,21.2686902 18.5534734,19.5747329 L13.9607302,17.8503713 L10.7777287,21.7030382 L10.7777287,21.7030382 Z M18.6111043,12.0909166 L21.2266627,16.2780315 C21.5591489,15.622166 21.8207048,14.9228657 22.0068971,14.184474 C22.4989767,12.2255645 22.3748485,10.2623114 21.7542075,8.48582807 L18.6111043,12.0909166 L18.6111043,12.0909166 Z M10.2014192,1.75343383 L13.4597843,5.48448327 L18.1101584,3.59072593 C17.0417693,2.81758647 15.8049205,2.23121665 14.4306441,1.90111215 C12.9987367,1.55797722 11.5668294,1.52322937 10.2014192,1.75343383 L10.2014192,1.75343383 Z M13.4243191,15.9913618 L16.0930753,11.7825295 L12.8347102,7.9950148 L8.15330403,9.86271126 L8.52125545,14.8012482 L13.4243191,15.9913618 L13.4243191,15.9913618 Z" id="形状" fill="#666666" fill-rule="nonzero"></path>
            </g>
        </g>
    </g>
</svg>