<?xml version="1.0" encoding="UTF-8"?>
<svg width="22px" height="23px" viewBox="0 0 22 23" version="1.1" xmlns="http://www.w3.org/2000/svg" xmlns:xlink="http://www.w3.org/1999/xlink">
    <!-- Generator: Sketch 54.1 (76490) - https://sketchapp.com -->
    <title>ao_bj</title>
    <desc>Created with Sketch.</desc>
    <g id="页面1" stroke="none" stroke-width="1" fill="none" fill-rule="evenodd">
        <g id="网站" transform="translate(-2143.000000, -567.000000)">
            <g id="ao_bj" transform="translate(2142.000000, 566.000000)">
                <path d="M11.9866699,2.25738506 C7.48621446,2.25738506 3.5910634,5.36698115 2.51331187,9.82168749 C1.22560268,15.1445818 4.43135399,20.5437317 9.65964392,21.8538944 C10.4371312,22.0474023 11.2243791,22.1459549 12.0044434,22.145955 C16.5048988,22.145955 20.4000498,19.0363589 21.4778274,14.5815449 C22.1018857,12.0051094 21.7017111,9.33214331 20.3530597,7.05659973 C19.0519293,4.86818528 17.0292114,3.30495462 14.6256153,2.62342715 C13.2852036,2.37939909 12.4055551,2.25738506 11.9866699,2.25738506 Z" id="路径" fill="#FFFFFF" fill-rule="nonzero"></path>
                <path d="M11.9866699,2.25738506 C7.48621446,2.25738506 3.5910634,5.36698115 2.51331187,9.82168749 C1.22560268,15.1445818 4.43135399,20.5437317 9.65964392,21.8538944 C10.4371312,22.0474023 11.2243791,22.1459549 12.0044434,22.145955 C16.5048988,22.145955 20.4000498,19.0363589 21.4778274,14.5815449 C22.1018857,12.0051094 21.7017111,9.33214331 20.3530597,7.05659973 C19.0519293,4.86818528 17.0292114,3.30495462 14.6256153,2.62342715 C13.2852036,2.37939909 12.4055551,2.25738506 11.9866699,2.25738506 Z M9.36767273,23.0754541 C7.92441948,22.7139492 6.59418842,22.0751177 5.41831933,21.1771812 C4.27929221,20.3085525 3.32739912,19.2391308 2.58842003,17.9960103 C1.84696844,16.7487305 1.35928384,15.3935338 1.13873396,13.9666239 C0.904671141,12.4899838 0.96727376,10.9944347 1.32279376,9.52299651 C1.62700079,8.27465823 2.12937931,7.09924226 2.81438479,6.03667438 C3.48635646,5.00331253 4.31223372,4.09628166 5.26710249,3.34733958 C6.21643452,2.60021485 7.2740684,2.01819011 8.41424262,1.61398888 C9.56846523,1.2066457 10.7746014,1 11.9955566,1 C12.8736525,1 13.7614739,1.11093025 14.6323273,1.3278859 C16.0755805,1.68939088 17.4058116,2.3282223 18.5816807,3.2261588 C19.7207078,4.09478751 20.6726009,5.16420919 21.41158,6.40732972 C22.1530316,7.65460954 22.6407162,9.00980619 22.861266,10.4367161 C23.0953289,11.9133563 23.0327262,13.4089053 22.6772062,14.8803435 C22.3729992,16.1286818 21.8706207,17.3040978 21.1856152,18.3666657 C20.5136435,19.4000275 19.6877663,20.3070584 18.7328975,21.0560005 C17.7835655,21.8031252 16.7259316,22.3851499 15.5853165,22.7895064 C14.4253009,23.1972695 13.2236782,23.4033401 12.0044434,23.40334 C11.1263475,23.40334 10.2385261,23.2924098 9.36767273,23.0754541 Z" id="形状" fill="#3683FF" fill-rule="nonzero"></path>
                <path d="M9.25257089,11.4568049 L2.43086538,8.25312039 L2.95206288,7.10922344 L10.7102669,10.8502143 L10.4313636,10.0080208 L11.5496807,8.99285816 L11.8621216,9.97202294 L13.8350083,1.63890967 L15.0288713,1.93395082 L12.7925948,11.594714 L22.7318491,11.9819187 L22.6620676,13.2371401 L14.8819548,12.861794 L14.952461,12.895792 L14.952461,14.1336501 L12.879394,13.1600735 L15.7985643,22.308521 L14.6297039,22.6855863 L12.0373272,14.8574867 L11.8898061,15.4947812 L10.6321844,15.1670532 L10.9371275,13.879029 L4.51487379,19.9722086 L3.67979771,19.0510943 L10.4297568,12.6470009 L8.87674737,12.5720771 L8.60381032,11.431531 L9.25257089,11.4568049 Z M14.4162148,2.48383682 L14.3087719,2.30565037 L14.1379536,2.41182264 L14.1165604,2.50424174 L14.3950875,2.57307457 L14.4162148,2.48383682 Z M11.5460307,14.6069705 L11.3281594,14.5501946 L11.2936705,14.6991875 L11.3808172,14.846596 L11.5078354,14.7683003 L11.5460307,14.6069705 Z M4.75060588,19.0921399 L4.55537623,18.8767956 L4.48943318,18.9393598 L4.48166332,19.1495002 L4.6820517,19.1571813 L4.75060588,19.0921399 Z M21.9463194,12.4284425 L21.9298585,12.7245405 L22.0155804,12.72788 L22.1751199,12.5814962 L22.0425598,12.4330855 L21.9463194,12.4284425 Z M9.54740617,12.1080181 L9.48016261,11.8270216 L9.19642821,11.813333 L9.17845499,12.1995493 L9.54740617,12.1080181 Z M11.231222,10.0030554 L11.1603975,10.2755259 L11.1868012,10.3582729 L11.3114004,10.2451668 L11.231222,10.0030554 Z M15.1111404,21.7190946 L14.8398424,21.8066132 L14.8668044,21.8911101 L15.0536946,21.9876214 L15.1420949,21.8125668 L15.1111404,21.7190946 Z M3.44015251,7.87551884 L3.35342136,7.8347872 L3.16365469,7.90467536 L3.23452803,8.10106319 L3.31885902,8.14172743 L3.44015251,7.87551884 Z M14.1929707,13.1404974 L14.1929707,13.3852028 L14.3202465,13.446575 L14.3650687,13.417367 L14.1929707,13.1404974 Z" id="形状结合" fill="#3683FF" fill-rule="nonzero"></path>
                <path d="M6.10808081,9.29941711 L5.51711155,4.17806044 L5.28161251,4.12829462 C3.66422294,5.51721378 2.44673736,7.42188795 1.90020187,9.67492293 C1.76245716,10.2404438 1.67358959,10.8150129 1.62915582,11.3986304 L6.10808081,9.29941711 Z M7.09895409,16.7552438 L2.22456847,15.8187413 C3.17100798,18.4518063 5.13053767,20.6686479 7.74324391,21.8539796 L7.09895409,16.7552438 L7.09895409,16.7552438 Z M10.8002879,22.5642738 L10.8980423,22.7135713 C13.7373608,23.0212146 16.4922551,22.1118571 18.5939729,20.3474321 L13.9906333,18.5513379 L10.8002879,22.5642738 L10.8002879,22.5642738 Z M18.6517368,12.5522929 L21.2733298,16.9135896 C21.6065832,16.2304404 21.8687425,15.5020496 22.0553643,14.7329413 C22.5485793,12.6925421 22.4241647,10.6476188 21.8020918,8.79723461 L18.6517368,12.5522929 L18.6517368,12.5522929 Z M10.2226488,1.78477628 L13.4885316,5.67103544 L18.1496351,3.69849878 C17.078781,2.89319712 15.8390786,2.28243462 14.4616314,1.93859794 C13.0264203,1.58118878 11.5912092,1.54499544 10.2226488,1.78477628 L10.2226488,1.78477628 Z M13.4529846,16.6149946 L16.1278981,12.2310771 L12.8620153,8.28600377 L8.1698082,10.2313954 L8.53860855,15.3753729 L13.4529846,16.6149946 L13.4529846,16.6149946 Z" id="形状" fill="#3683FF" fill-rule="nonzero"></path>
                <path d="M23,20.1338717 L23,21.3311068 L20.5564494,23.0632439 L19.9748844,21.9466391 C19.832995,21.6742114 19.6772271,21.3942323 19.5079281,21.1076458 L19.7165812,21.8705228 L16.2357771,22.699991 L16.0842272,22.0177992 L12.9808569,22.7419189 L12.8047165,21.5462993 C12.7378144,21.092176 12.6611231,20.6579285 12.5754014,20.2455994 C12.226057,20.8928728 11.8422496,21.4913912 11.4266611,22.0379532 L10.7716873,22.8993429 L7.89007315,20.7552608 L8.64913823,19.8374821 C9.20737072,19.1625283 9.70505632,18.3549609 10.1404063,17.4125882 L10.1404063,11.4213476 L13.8315293,11.4213476 L13.8315293,7.48216122 L17.3165869,7.48216122 L17.3165869,8.70706723 L22.5251716,8.70706723 L22.5251716,12.1858926 L21.6639096,12.1858926 L21.6639096,18.0189275 C22.2003905,18.781722 22.640625,19.4773878 22.987517,20.1110686 L23,20.1338717 Z" id="形状结合" fill="#FFFFFF" fill-rule="nonzero"></path>
                <path d="M10.535758,10.6529508 L18.0712623,10.6529508 L18.0712623,20.8645901 C13.1436263,21.5412822 10.6755011,21.659136 10.6668866,21.2181516 C10.4689468,18.7335707 10.4252373,15.2118371 10.535758,10.6529508 Z" id="矩形复制-30" fill="#FFFFFF"></path>
                <path d="M14.9315293,8.60216122 L16.2165869,8.60216122 L16.2165869,9.82706723 L21.4251716,9.82706723 L21.4251716,11.0658926 L16.2165869,11.0658926 L16.2165869,12.5413476 L20.5639096,12.5413476 L20.5639096,17.2600196 L11.2404063,17.2600196 L11.2404063,12.5413476 L14.9315293,12.5413476 L14.9315293,8.60216122 Z M19.2651811,16.0351136 L19.2651811,13.780173 L12.5254639,13.780173 L12.5254639,16.0351136 L19.2651811,16.0351136 Z M11.2130646,17.7193593 L12.2930599,18.2622154 C11.8009101,19.4592826 11.2130646,20.4893172 10.556865,21.3523192 L9.49054055,20.5589142 C10.1467402,19.7655091 10.7209149,18.8189909 11.2130646,17.7193593 Z M14.4667212,18.1647797 C14.7401377,19.0556204 14.9862126,20.0299775 15.2049458,21.0739315 L13.8925465,21.380158 C13.7284966,20.266607 13.5097634,19.2783306 13.2500177,18.429248 L14.4667212,18.1647797 Z M17.310253,17.9838277 C17.7067069,18.9303459 18.0484776,19.9464612 18.3492358,21.0460927 L17.0641781,21.3523192 C16.8044324,20.1830907 16.4763326,19.1391367 16.0935495,18.2343766 L17.310253,17.9838277 Z M20.0444182,17.6776012 C20.9056802,18.8189909 21.5618799,19.8072673 22.0266879,20.6563499 L20.9466927,21.4219161 C20.4682138,20.5032366 19.825685,19.473202 19.0054354,18.3596511 L20.0444182,17.6776012 Z" id="点" fill="#3683FF" fill-rule="nonzero"></path>
                <rect id="矩形" x="0" y="0" width="24" height="24"></rect>
            </g>
        </g>
    </g>
</svg>