<?xml version="1.0" encoding="UTF-8"?>
<svg width="22px" height="22px" viewBox="0 0 22 22" version="1.1" xmlns="http://www.w3.org/2000/svg" xmlns:xlink="http://www.w3.org/1999/xlink">
    <!-- Generator: Sketch 54 (76480) - https://sketchapp.com -->
    <title>ap_bj</title>
    <desc>Created with Sketch.</desc>
    <g id="页面1" stroke="none" stroke-width="1" fill="none" fill-rule="evenodd">
        <g id="网站" transform="translate(-2265.000000, -568.000000)">
            <g id="ap_bj" transform="translate(2264.000000, 567.000000)">
                <rect id="矩形" x="0" y="0" width="24" height="24"></rect>
                <path d="M11.9268924,2.21394286 C7.45092358,2.21394286 3.57696567,5.2161035 2.50507808,9.51690132 C1.2243752,14.6558915 4.41268431,19.8685028 9.61252761,21.1333997 C10.3857847,21.320222 11.1687492,21.4153697 11.9445692,21.4153697 C16.4205381,21.4153697 20.294496,18.4132091 21.3664095,14.1123074 C21.9870723,11.6248867 21.5890751,9.04427071 20.2477615,6.84734636 C18.9537104,4.73454085 16.9419979,3.22531926 14.5514796,2.56733832 C13.2183609,2.33174134 12.3434985,2.21394286 11.9268924,2.21394286 Z" id="路径" fill="#FFFFFF" fill-rule="nonzero"></path>
                <path d="M11.9268924,2.21394286 C7.45092358,2.21394286 3.57696567,5.2161035 2.50507808,9.51690132 C1.2243752,14.6558915 4.41268431,19.8685028 9.61252761,21.1333997 C10.3857847,21.320222 11.1687492,21.4153697 11.9445692,21.4153697 C16.4205381,21.4153697 20.294496,18.4132091 21.3664095,14.1123074 C21.9870723,11.6248867 21.5890751,9.04427071 20.2477615,6.84734636 C18.9537104,4.73454085 16.9419979,3.22531926 14.5514796,2.56733832 C13.2183609,2.33174134 12.3434985,2.21394286 11.9268924,2.21394286 Z M9.32214501,22.312755 C7.88674436,21.9637399 6.56375097,21.3469799 5.39427967,20.4800668 C4.26144989,19.6414489 3.31473596,18.6089754 2.57977758,17.4088042 C1.84236017,16.2046175 1.35732901,14.8962424 1.13797912,13.5186317 C0.905189816,12.0930089 0.96745182,10.6491305 1.32103747,9.22853001 C1.62358934,8.02332137 2.12323446,6.88851561 2.80451289,5.86265907 C3.47282843,4.86499951 4.29421217,3.98930623 5.24388558,3.26623983 C6.18805239,2.544928 7.23993178,1.983012 8.37390242,1.59277578 C9.52184501,1.19950617 10.7214187,1 11.9357308,1 C12.8090491,1 13.6920399,1.10709765 14.5581551,1.31655756 C15.9935557,1.66557267 17.3165491,2.28233269 18.4860204,3.1492458 C19.6188502,3.98786371 20.5655641,5.02033724 21.3005225,6.2205084 C22.0379399,7.42469514 22.5229711,8.73307023 22.7423209,10.1106809 C22.9751102,11.5363037 22.9128482,12.980182 22.5592626,14.4007826 C22.2567107,15.6059912 21.7570656,16.740797 21.0757872,17.7666535 C20.4074716,18.7643131 19.5860879,19.6400064 18.6364145,20.3630728 C17.6922477,21.0843846 16.6403683,21.6463006 15.5059592,22.0366867 C14.3522551,22.4303617 13.1571703,22.6293126 11.9445692,22.6293126 C11.0712509,22.6293126 10.1882601,22.5222149 9.32214501,22.312755 Z" id="形状" fill="#E15756" fill-rule="nonzero"></path>
                <path d="M9.20766943,11.095526 L2.42308017,8.00252766 L2.94144189,6.89815194 L10.6574343,10.5098929 L10.3800485,9.69679689 L11.4922809,8.71670775 L11.8030218,9.66204273 L13.7651742,1.61683557 L14.9525415,1.90168315 L12.7284324,11.2286704 L22.6136081,11.6024973 L22.5442063,12.8143512 L14.8064244,12.4519733 L14.876547,12.4847966 L14.876547,13.6798871 L12.8147593,12.7399473 L15.7180467,21.5723191 L14.555546,21.9363569 L11.9772741,14.3787155 L11.8305557,14.9939917 L10.5797766,14.6775865 L10.8830606,13.4340631 L4.49574969,19.3167255 L3.66521718,18.4274354 L10.3784504,12.2446012 L8.83389073,12.1722659 L8.5624387,11.0711254 L9.20766943,11.095526 Z M14.3432184,2.43257078 L14.2363601,2.26054061 L14.0664712,2.36304467 L14.0451944,2.45227072 L14.3222061,2.5187254 L14.3432184,2.43257078 Z M11.4886507,14.1368545 L11.2719649,14.0820402 L11.2376636,14.2258854 L11.3243361,14.368201 L11.4506633,14.2926104 L11.4886507,14.1368545 Z M4.73019919,18.4670628 L4.53603176,18.2591587 L4.4704475,18.3195613 L4.46271992,18.5224414 L4.662018,18.5298572 L4.73019919,18.4670628 Z M21.8323525,12.0335938 L21.8159811,12.3194618 L21.9012366,12.3226859 L22.0599081,12.1813596 L21.9280692,12.0380765 L21.8323525,12.0335938 Z M9.50090053,11.72424 L9.43402285,11.4529518 L9.15183221,11.4397362 L9.13395679,11.8126089 L9.50090053,11.72424 Z M11.1755549,9.69200306 L11.1051157,9.95505974 L11.1313757,10.0349479 L11.255297,9.92574959 L11.1755549,9.69200306 Z M15.034363,21.0032572 L14.7645411,21.0877521 L14.7913564,21.1693297 L14.9772297,21.2625065 L15.0651491,21.0935 L15.034363,21.0032572 Z M3.42687587,7.6379721 L3.34061661,7.59864773 L3.15188245,7.66612128 L3.22237018,7.85572398 L3.30624232,7.89498328 L3.42687587,7.6379721 Z M14.121189,12.7210475 L14.121189,12.9572985 L14.2477723,13.0165502 L14.2923507,12.9883514 L14.121189,12.7210475 Z" id="形状结合" fill="#E15756" fill-rule="nonzero"></path>
                <path d="M6.08028822,9.0126752 L5.49253437,4.06825958 L5.25831666,4.02021315 C3.64972715,5.36114564 2.4388658,7.20001401 1.89530395,9.37520742 C1.7583087,9.92118972 1.66992465,10.4759077 1.62573264,11.0393614 L6.08028822,9.0126752 Z M7.06577026,16.2109057 L2.21790571,15.306759 C3.15919573,17.8488525 5.1080638,19.9891031 7.70655455,21.133482 L7.06577026,16.2109057 L7.06577026,16.2109057 Z M10.7469655,21.8192358 L10.8441879,21.9633751 C13.668058,22.2603894 16.4079632,21.3824499 18.4982458,19.6789852 L13.9199525,17.9449454 L10.7469655,21.8192358 L10.7469655,21.8192358 Z M18.5556954,12.1531653 L21.1630245,16.3637807 C21.4944647,15.7042341 21.7551976,15.0010089 21.9408041,14.258473 C22.4313355,12.2885689 22.3075978,10.314297 21.6889096,8.52784293 L18.5556954,12.1531653 L18.5556954,12.1531653 Z M10.1724693,1.75766254 L13.4205827,5.50965282 L18.0563255,3.6052666 C16.9912979,2.82778783 15.7583405,2.23812696 14.3883879,1.90616972 C12.9609857,1.56110892 11.5335835,1.52616604 10.1724693,1.75766254 L10.1724693,1.75766254 Z M13.3852291,16.0755021 L16.0455887,11.8430474 L12.7974752,8.03427493 L8.13079794,9.912454 L8.49759169,14.8787089 L13.3852291,16.0755021 L13.3852291,16.0755021 Z" id="形状" fill="#E15756" fill-rule="nonzero"></path>
                <path d="M10.4838748,10.3194448 L17.9783792,10.3194448 L17.9783792,20.1782756 C13.077554,20.8315882 10.6228576,20.9453702 10.61429,20.5196217 C10.4174272,18.1208821 10.3739554,14.7208232 10.4838748,10.3194448 Z" id="矩形" fill="#FFFFFF"></path>
                <path d="M20.361855,23 L16.3907324,23 L15.7354473,20.9240084 L7.81408299,20.9240084 L7.81408299,17.4462045 L9.75874725,17.4462045 L9.75874725,9.36301827 L13.0017785,9.36301827 C13.0895965,9.10353372 13.1588782,8.85147607 13.2096997,8.60453947 L13.4155856,7.6041604 L17.1280894,8.08519197 L16.7872282,9.30823983 C16.7821314,9.3265275 16.7769568,9.34478642 16.7717042,9.36301827 L20.5662843,9.36301827 L20.5584573,10.4707902 C20.5425569,12.7211814 20.3843447,14.101928 19.978884,14.8495531 C19.9714037,14.8633458 19.9638111,14.8770269 19.9561065,14.8905968 L22.1113676,14.8905968 L22.0997512,16.0020924 C22.0694907,18.8975028 21.9196999,20.7114503 21.5972045,21.6040281 C21.3574755,22.2411941 20.9304071,22.7078213 20.361855,23 Z" id="形状结合" fill="#FFFFFF" fill-rule="nonzero"></path>
                <path d="M8.91408299,18.5462045 L18.3781157,18.5462045 L18.3781157,19.8240084 L8.91408299,19.8240084 L8.91408299,18.5462045 Z M17.3121516,22.2647573 L16.9088138,20.9869534 C17.5426303,21.0156681 18.1332321,21.0443828 18.680619,21.0443828 C19.0695519,21.0443828 19.3288405,20.8720947 19.4440798,20.5418757 C19.5593192,20.1972994 19.6169389,19.0917837 19.6457487,17.2396859 L10.8587472,17.2396859 L10.8587472,10.4630183 L13.7541363,10.4630183 C13.984615,9.93179644 14.1718789,9.38621726 14.2871183,8.82628074 L15.7276104,9.01292625 C15.5835611,9.52979073 15.3674873,10.0035832 15.1081988,10.4630183 L19.4584847,10.4630183 C19.4440798,12.5017615 19.3000306,13.7939227 19.0119322,14.3251445 C18.7238338,14.8563664 18.0323976,15.129156 16.9664335,15.129156 L16.159758,15.129156 L15.78523,13.9231388 C16.2749973,13.9518535 16.7503597,13.9805682 17.240127,13.9805682 C17.6578697,13.9805682 17.9171583,13.8082801 18.0035878,13.4780611 C18.0756124,13.1334848 18.1188271,12.5448335 18.1188271,11.7408221 L12.2704294,11.7408221 L12.2704294,15.9905968 L20.9998112,15.9905968 C20.9710014,18.7472073 20.8269522,20.4988036 20.5676636,21.216671 C20.308375,21.9058236 19.6745585,22.2647573 18.680619,22.2647573 L17.3121516,22.2647573 Z" id="乌" fill="#E15756" fill-rule="nonzero"></path>
            </g>
        </g>
    </g>
</svg>