<?xml version="1.0" encoding="UTF-8"?>
<svg width="18px" height="22px" viewBox="0 0 18 22" version="1.1" xmlns="http://www.w3.org/2000/svg" xmlns:xlink="http://www.w3.org/1999/xlink">
    <!-- Generator: Sketch 54 (76480) - https://sketchapp.com -->
    <title>as_bj</title>
    <desc>Created with Sketch.</desc>
    <g id="页面1" stroke="none" stroke-width="1" fill="none" fill-rule="evenodd">
        <g id="网站" transform="translate(-2606.000000, -568.000000)">
            <g id="as_bj" transform="translate(2601.000000, 568.000000)">
                <rect id="矩形" x="2" y="-1" width="24" height="24"></rect>
                <rect id="矩形复制-49" fill="#F44D4D" x="5" y="0" width="14.7272727" height="20.4285714" rx="1.6"></rect>
                <g id="编组-6" transform="translate(8.272727, 3.142857)">
                    <rect id="矩形复制-51" fill="#F9DA0D" x="0" y="0" width="14.7272727" height="18.8571429" rx="1.6"></rect>
                    <path d="M14.4706965,0.730621178 C14.6330117,0.980927077 14.7272727,1.27945562 14.7272727,1.6 L14.7272727,17.2571429 C14.7272727,18.1407985 14.0109283,18.8571429 13.1272727,18.8571429 L1.6,18.8571429 C0.725055688,18.8571429 0.0141400489,18.1548526 0.000208327517,17.2832274 C3.67076831,15.6208325 6.17949534,14.2786946 7.5263894,13.2568138 C9.29342637,11.916173 11.6081954,7.74077548 14.4706965,0.730621178 Z" id="形状结合复制-20" fill="#E8CC10"></path>
                </g>
                <path d="M18.7336051,16.5 C18.7336051,17.1076221 18.5481524,17.4114286 18.1772414,17.4114286 L12.1881505,17.4114286 C12.0136042,17.4114286 11.8581512,17.2883346 11.7217869,17.0421429 C11.5854226,16.7959512 11.5281504,16.5052398 11.5499687,16.17 C11.5608779,16.0023801 11.5908776,15.8321437 11.6399687,15.6592857 C11.6890599,15.4864277 11.7736045,15.3214294 11.8936051,15.1642857 C11.95906,15.0699995 12.1199674,14.9154773 12.3763324,14.7007143 C12.6326973,14.4859513 12.929967,14.2345252 13.2681505,13.9464286 C13.606334,13.6583319 13.9636032,13.3335732 14.3399687,12.9721429 C14.7163342,12.6107125 15.0599672,12.2335734 15.3708778,11.8407143 C15.6817885,11.4478552 15.9408768,11.0471449 16.1481505,10.6385714 C16.3554243,10.229998 16.4590596,9.82143061 16.4590596,9.41285714 C16.4590596,9.02523616 16.3445153,8.71095359 16.1154233,8.47 C15.8863312,8.22904641 15.5808797,8.10857143 15.1990596,8.10857143 C14.773603,8.10857143 14.4545152,8.24476054 14.2417869,8.51714286 C14.0290586,8.78952517 13.922696,9.17714034 13.922696,9.68 C13.922696,10.0152398 13.8490604,10.2535707 13.7017869,10.395 C13.5545134,10.5364293 13.2954251,10.6071429 12.9245142,10.6071429 C12.4772392,10.6071429 12.1772422,10.5442863 12.0245142,10.4185714 C11.8717861,10.2928565 11.7954233,10.0466685 11.7954233,9.68 C11.7954233,8.63237571 12.0899658,7.80476494 12.6790596,7.19714286 C13.2681535,6.58952077 14.173599,6.28571429 15.3954233,6.28571429 C16.4208829,6.28571429 17.2117841,6.56333056 17.7681505,7.11857143 C18.324517,7.6738123 18.602696,8.4071383 18.602696,9.31857143 C18.602696,9.68523993 18.5372421,10.054522 18.4063324,10.4264286 C18.2754226,10.7983352 18.1036061,11.1649982 17.8908778,11.5264286 C17.6781495,11.8878589 17.4354246,12.2388078 17.162696,12.5792857 C16.8899674,12.9197636 16.6117883,13.2419032 16.3281505,13.5457143 C15.989967,13.9019065 15.6326979,14.2502364 15.2563324,14.5907143 C14.8799668,14.9311922 14.4845162,15.2638079 14.0699687,15.5885714 L18.1772414,15.5885714 C18.5481524,15.5885714 18.7336051,15.8923779 18.7336051,16.5 Z" id="2" fill="#FFFFFF" fill-rule="nonzero"></path>
            </g>
        </g>
    </g>
</svg>